<?xml version="1.0" encoding="utf-8"?>
<!-- Generator: Adobe Illustrator 23.0.1, SVG Export Plug-In . SVG Version: 6.00 Build 0)  -->
<svg version="1.1" id="Layer_1" xmlns="http://www.w3.org/2000/svg" xmlns:xlink="http://www.w3.org/1999/xlink" x="0px" y="0px"
	 viewBox="0 0 16 16" style="enable-background:new 0 0 16 16;" xml:space="preserve">
<style type="text/css">
	.st0{fill:#FFFFFF;}
</style>
<g>
	<path class="st0" d="M9.8,3c0.4,0.1,0.9,0.2,1.3,0.3c0.8,0.2,1.5,0.6,2.1,1c0,0,0.1,0,0.2,0c0.8,0,1.6,0,2.4,0c0.1,0,0.1,0,0.2,0
		c0,0,0,0,0,0c0,0.1-0.1,0.1-0.1,0.2c-0.3,0.4-0.5,0.8-0.6,1.3c0,0,0,0.1,0,0.1c0.7,0.9,0.9,2.2,0.6,3.3c-0.2,1-0.9,1.9-1.8,2.4
		c-0.6,0.4-1.4,0.6-2.1,0.6c-0.3,0-0.6,0-1-0.1c-0.8-0.2-1.4-0.6-2-1.2c-0.1-0.1-0.1-0.2-0.2-0.2c-0.3,0.4-0.6,0.9-0.9,1.3l-0.8-1.3
		l0,0c0,0,0,0,0,0c-0.6,0.8-1.5,1.3-2.5,1.4c-0.6,0.1-1.1,0.1-1.7-0.1c-1.5-0.4-2.7-1.7-2.9-3.2C0,8.4,0,7.8,0.1,7.3
		C0.2,6.8,0.5,6.4,0.7,6c0,0,0-0.1,0-0.1C0.6,5.4,0.5,5,0.2,4.6C0.1,4.5,0.1,4.4,0,4.4v0h0h2.4c0,0,0.1,0,0.1,0
		c0.6-0.4,1.2-0.7,1.8-0.9C4.8,3.3,5.3,3.1,5.8,3c0.5-0.1,0.9-0.1,1.4-0.2C8,2.8,8.9,2.8,9.8,3z M8.8,8.3c0,1.8,1.4,3.2,3.2,3.2
		c1.8,0,3.2-1.4,3.2-3.2c0-1.8-1.4-3.2-3.2-3.2c0,0-0.1,0-0.1,0C10.2,5.1,8.8,6.6,8.8,8.3z M4,5.1c-1.8,0-3.2,1.4-3.2,3.2
		c0,1.8,1.4,3.2,3.2,3.2c1.8,0,3.2-1.4,3.2-3.2C7.2,6.5,5.8,5.1,4,5.1C4,5.1,4,5.1,4,5.1z M4.2,4.3C6.1,4.4,7.7,5.8,8,7.7
		c0.3-1.9,1.9-3.4,3.8-3.5c-1.1-0.5-2.3-0.7-3.6-0.7C6.8,3.5,5.4,3.7,4.2,4.3L4.2,4.3z"/>
	<path class="st0" d="M12,6.3c1.1,0,2,0.9,2,2s-0.9,2-2,2c-1.1,0-2-0.9-2-2C10,7.2,10.9,6.3,12,6.3C12,6.3,12,6.3,12,6.3z M13.3,8.2
		c0-0.7-0.6-1.3-1.3-1.3c-0.7,0-1.3,0.6-1.3,1.3s0.6,1.3,1.3,1.3C12.7,9.5,13.3,9,13.3,8.2L13.3,8.2z"/>
	<path class="st0" d="M4,6.3c1.1,0,2,0.9,2,2s-0.9,2-2,2c-1.1,0-2-0.9-2-2C2,7.2,2.9,6.3,4,6.3C3.9,6.3,4,6.3,4,6.3z M5.3,8.2
		C5.2,7.5,4.6,7,3.8,7.1C3.2,7.1,2.7,7.6,2.7,8.2C2.6,9,3.1,9.6,3.8,9.6c0.7,0.1,1.3-0.5,1.4-1.2C5.3,8.4,5.3,8.3,5.3,8.2z"/>
	<path class="st0" d="M12,7.6c0.4,0,0.6,0.3,0.6,0.6S12.3,8.9,12,8.9c-0.4,0-0.6-0.3-0.6-0.6C11.3,7.9,11.6,7.6,12,7.6
		C12,7.6,12,7.6,12,7.6z"/>
	<path class="st0" d="M4,7.6c0.4,0,0.7,0.3,0.7,0.6c0,0.4-0.3,0.7-0.6,0.7c0,0,0,0-0.1,0c-0.4,0-0.7-0.3-0.7-0.6S3.5,7.6,4,7.6
		C3.9,7.6,3.9,7.6,4,7.6z"/>
</g>
</svg>
