<?xml version="1.0" encoding="utf-8"?>
<!-- Generator: Adobe Illustrator 23.0.1, SVG Export Plug-In . SVG Version: 6.00 Build 0)  -->
<svg version="1.1" id="Layer_1" xmlns="http://www.w3.org/2000/svg" xmlns:xlink="http://www.w3.org/1999/xlink" x="0px" y="0px"
	 viewBox="0 0 1120.9 1119.8" style="enable-background:new 0 0 1120.9 1119.8;" xml:space="preserve">
<style type="text/css">
	.st0{fill:#FFFFFF;}
	.st1{font-family:'GillSans';}
	.st2{font-size:180.3663px;}
	.st3{letter-spacing:15;}
</style>
<title>The-Stag-Rackenford-Roundel</title>
<path class="st0" d="M36.3,363.3L79,273.4l13.7,6.6l-17.8,37.4l94,44.6l-7.3,15.5l-94-44.6l-17.5,36.9L36.3,363.3z"/>
<path class="st0" d="M198.3,132.9l12.2-11.9l82.8,85.5l-12.2,11.9l-36-37.2L197,227.7l36,37.2l-12.2,11.9L138,191.3l12.2-11.9
	l35.8,37l48.1-46.5L198.3,132.9z"/>
<path class="st0" d="M303.1,62.2l61.5-27.9l6.3,13.8l-46,20.9l15,33.1L384.3,82l6.3,13.9L346.2,116l15.3,33.7l47.4-21.5l6.3,13.8
	l-62.9,28.5L303.1,62.2z"/>
<path class="st0" d="M603,70.7l-12.3-8.9c-7.7-5.6-13.1-10.9-16.1-16c-3.1-5.1-4.4-11-3.8-16.9c0.7-9.3,4.6-16.7,11.5-22
	s15.6-7.6,26-6.7c9.7,0.7,19,4.4,26.6,10.5L633.3,30c-7.9-8.9-16.8-13.8-26.6-14.6c-5.5-0.4-10.2,0.5-14,2.8s-5.8,5.4-6.1,9.4
	c-0.2,3.7,0.9,7.4,3.2,10.3c2.4,3.3,6.3,6.9,11.9,10.8l12.4,8.7c13.8,9.8,20.1,21.4,19.1,34.7c-0.7,9.5-4.5,17-11.4,22.4
	c-6.8,5.4-15.4,7.8-25.6,6.9c-11.6-0.9-22.5-5.6-31.1-13.4l1.7-21.6c8.3,12.4,18.4,19,30.5,20c4.8,0.6,9.7-0.7,13.6-3.4
	c3.6-2.4,5.9-6.4,6.2-10.8C617.6,85.2,612.9,78,603,70.7z"/>
<path class="st0" d="M727.4,22.5l91.9,37.9l-5.8,14l-38.4-15.8l-39.7,96.2l-15.8-6.5l39.6-96.2l-37.7-15.5L727.4,22.5z"/>
<path class="st0" d="M916.1,126.4l9.2,7.7L888.8,260l-13.3-11.2l10.6-37.2l-38.8-32.7l-34.1,17.4L799.8,185L916.1,126.4z
	 M890.5,195.5l13.1-45.3l-41.4,21.4L890.5,195.5z"/>
<path class="st0" d="M1001.4,326l19.5,34.9l-44.1,24.6c-12.7-9.7-22.5-20.9-29.6-33.5c-9.6-17.2-12.2-33.8-7.9-49.7
	s13.8-28,28.6-36.2c15.5-8.7,31.4-10.5,47.7-5.6s28.9,15.4,37.8,31.5c3.2,5.6,5.6,11.5,7.4,17.7c2,7.8,3.4,15.8,4.2,23.8l-15.2,8.5
	c0.3-16.4-3-30.7-9.8-42.9c-6.3-11.4-15.5-18.8-27.6-22.3s-23.7-2.1-35,4.2c-11.8,6.6-19.3,15.9-22.5,27.8s-1.3,24.1,5.5,36.3
	c3.3,6,8.7,12.3,16,19.1l1.2,1.2l21.7-12.1l-11.2-20L1001.4,326z"/>
<path class="st0" d="M0,528.4l119-2.3l0.6,29.8c0.2,12-2.6,21.7-8.4,28.8c-5.8,7.2-13.8,10.9-24,11.1c-13.1,0.8-25.2-7.2-29.7-19.5
	c-2.8,4.2-6.1,8.1-10,11.4c-4.2,3.7-11.7,9-22.3,15.8c-6.7,4.3-11.7,7.7-15,10.3l-8.4,6.5L1.4,600l7.7-5.3c0.5-0.3,1-0.6,1.4-1
	l4.6-3.4l8.6-5.4l9.2-5.9c4.1-3,7.9-6.3,11.5-9.9c2.4-2.4,4.4-5.1,6.1-8c1.2-2.4,1.8-6.4,1.7-11.9l-0.1-4.4l-51.8,1L0,528.4z
	 M105,548.5l-0.1-5.1l-37.6,0.7l0.1,6.5c0.2,8.6,1,14.5,2.6,17.7c1.5,3.1,3.9,5.7,6.8,7.4c3.1,1.8,6.7,2.6,10.2,2.5
	c3.6,0,7.1-1.1,10.1-3.2c3-2,5.2-5.1,6.3-8.5C104.6,562.8,105.1,556.8,105,548.5z"/>
<path class="st0" d="M145.4,703.6l4.1,11.2l-93.8,91.6l-6-16.4l27.6-27.1l-17.6-47.6l-38.3-1.7l-6.1-16.4L145.4,703.6z M89.1,751.1
	l33.8-33l-46.6-1.8L89.1,751.1z"/>
<path class="st0" d="M186.7,939.9l-14.4,12c-13.2-5.2-25.1-14.1-35.6-26.6c-8.5-10.2-13.7-20.6-15.6-31.1c-1.9-10.4-0.9-21.1,2.8-31
	c3.7-10,9.9-18.9,18.1-25.7c13.3-11.1,28.4-15.7,45.4-13.8s31.3,9.8,42.9,23.7c8,9.6,14.4,22.3,19.2,38.2l-14.1,11.8
	c-2.8-15.8-8.5-28.8-17-39c-8.7-10.5-19.3-16.4-31.7-17.8s-23.6,2.1-33.5,10.4c-10,8.4-15.4,18.7-16.2,30.9s3.3,23.6,12.1,34.2
	C158.7,927.1,171.1,935.1,186.7,939.9z"/>
<path class="st0" d="M361.2,951.3l18.4,10.6l-73,23.1l24.5,86.3l-20.1-11.6l-23.3-81.3l-29.4,50.9l-14.8-8.5L303,917.7l14.8,8.5
	l-27.2,47.2L361.2,951.3z"/>
<path class="st0" d="M440.8,982.9l66.1,13.8l-3.1,14.8l-49.4-10.3l-7.4,35.5l47.7,10l-3.1,14.9l-47.7-10l-7.6,36.2l51,10.7
	l-3.1,14.8l-67.6-14.1L440.8,982.9z"/>
<path class="st0" d="M658.4,989.4l16-2.1l15.6,118l-14.5,1.9l-90.9-80.4l12,90.9l-15.9,2.1l-15.6-118l13.7-1.8l91.7,81.1
	L658.4,989.4z"/>
<path class="st0" d="M734.3,964.2l56.8-28.3l6.8,13.6l-41.5,20.7l14.8,29.7l41.5-20.7l6.8,13.6l-41.5,20.7l24.8,49.6l-15.2,7.6
	L734.3,964.2z"/>
<path class="st0" d="M877.9,862.4c12.7-13.3,27.5-20.3,44.4-21s31.6,5,44.3,17.1c12.7,12.2,18.9,26.7,18.6,43.5
	c-0.3,16.9-6.9,32.1-19.9,45.6c-12.4,12.9-26.9,19.7-43.5,20.3c-16.6,0.7-31.1-5-43.6-17c-12.8-12.3-19.3-26.9-19.3-43.6
	C858.8,890.6,865.2,875.6,877.9,862.4z M890.1,873.1c-9.4,9.8-14.1,20.8-14.1,33.1c0,12.2,4.9,22.9,14.4,32.1
	c9.3,8.9,20,13.1,32.2,12.7s22.9-5.4,32.1-15c9.2-9.6,13.7-20.6,13.6-33c-0.1-12.4-4.8-23.1-14.2-32.1c-9.1-8.7-19.8-12.9-32.2-12.4
	C909.7,858.8,899,863.7,890.1,873.1L890.1,873.1z"/>
<path class="st0" d="M1061.9,812.5l-109.5-46.7l11.7-27.4c4.7-11.1,11.2-18.7,19.5-22.9s17.1-4.2,26.4-0.2c12.3,4.7,20,16.9,19.1,30
	c4.3-2.7,8.9-4.8,13.8-6.3c5.4-1.6,14.3-3.4,26.8-5.2c7.8-1.1,13.8-2.2,17.9-3.2l10.3-2.5l-8,18.7l-9.2,1.7c-0.3,0-0.9,0.2-1.7,0.4
	l-5.6,1.2l-10.1,1.4l-10.8,1.6c-5,1-9.8,2.5-14.5,4.3c-3.2,1.2-6.2,2.8-8.9,4.8c-2.1,1.7-4.2,5.1-6.4,10.2l-1.7,4.1l47.6,20.3
	L1061.9,812.5z M974.5,751.1l-2,4.7l34.5,14.8l2.5-6c3.4-7.9,5-13.7,4.9-17.2c-0.1-3.4-1.2-6.8-3.2-9.5c-2.1-2.9-5-5.1-8.3-6.5
	c-3.3-1.5-7-1.9-10.5-1.3c-3.6,0.6-6.8,2.5-9.2,5.2C980.7,738.1,977.8,743.4,974.5,751.1L974.5,751.1z"/>
<path class="st0" d="M1118.5,637.6l-118.7-6l2-40.1c0.8-16.2,3.9-28.8,9.2-38s13.1-16.6,22.5-21.4c9.6-5.1,20.4-7.4,31.2-6.8
	c24.4,1.2,45.4,17.4,52.9,40.6c1.4,4.1,2.4,8.3,2.9,12.5c0.4,3.8,0.3,10.9-0.2,21.5L1118.5,637.6z M1016.9,594.1l-1.1,21.3l88.4,4.5
	l1.1-21.8c0.4-8.5,0.2-15.1-0.7-19.9c-0.7-4.2-2-8.2-3.8-12c-1.6-3.3-3.7-6.3-6.2-9c-8.1-8.8-18.6-13.6-31.6-14.2
	c-12.8-0.7-23.4,3.1-31.9,11.4c-3.2,3.1-5.9,6.6-8,10.6c-2,3.6-3.5,7.5-4.4,11.5C1017.9,580,1017.3,585.9,1016.9,594.1z"/>
<text transform="matrix(1 0 0 1 346.1748 615.1357)" class="st0 st1 st2 st3">1955</text>
</svg>
