<svg xmlns="http://www.w3.org/2000/svg" width="160.339" height="84.719" viewBox="0 0 160.339 84.719"><g transform="translate(-547.3 -316.48)"><g transform="translate(547.3 361.963)"><path d="M547.3,460.461h14.237v2.172H555.6v14.9h-2.452v-14.9H547.3Z" transform="translate(-547.3 -460.266)"/><path d="M634.088,460.538h2.44v17.043h-2.44v-7.418h-9.576v7.418h-2.44V460.538h2.44v7.369h9.576Z" transform="translate(-598.35 -460.319)"/><path d="M703.11,460.538h9.662v2.172H705.55v5.2h6.978v2.184H705.55v5.295H713v2.172H703.11Z" transform="translate(-653.679 -460.319)"/><path d="M814.005,469.968l-1.855-1.127a8.429,8.429,0,0,1-2.482-2.1,3.969,3.969,0,0,1-.738-2.373,4.19,4.19,0,0,1,1.4-3.269,5.22,5.22,0,0,1,3.629-1.257,6.866,6.866,0,0,1,3.916,1.2v2.769a5.646,5.646,0,0,0-3.965-1.772,3.28,3.28,0,0,0-1.964.553,1.677,1.677,0,0,0-.769,1.416,2.179,2.179,0,0,0,.566,1.434,7.11,7.11,0,0,0,1.821,1.4l1.863,1.1q3.118,1.863,3.118,4.741a4.345,4.345,0,0,1-1.372,3.33A5.019,5.019,0,0,1,813.6,477.3a7.5,7.5,0,0,1-4.6-1.552v-3.1a5.742,5.742,0,0,0,4.575,2.5,2.874,2.874,0,0,0,1.909-.638,2,2,0,0,0,.762-1.6Q816.25,471.364,814.005,469.968Z" transform="translate(-725.928 -459.846)"/><path d="M866.742,460.461h14.237v2.172h-5.941v14.9h-2.452v-14.9h-5.844Z" transform="translate(-765.399 -460.266)"/><path d="M936.028,460.231h1.715l7.642,17.14h-2.5l-2.271-5.051h-7.271l-2.13,5.051h-2.507Zm3.585,9.918-2.75-6.173-2.55,6.173Z" transform="translate(-807.706 -460.109)"/><path d="M1013.53,468.715h5.722v7.223a15.59,15.59,0,0,1-6.246,1.366,9.27,9.27,0,0,1-6.765-2.47,8.178,8.178,0,0,1-2.531-6.094,8.479,8.479,0,0,1,2.623-6.356,9.079,9.079,0,0,1,6.576-2.537,11.662,11.662,0,0,1,2.732.311,22.41,22.41,0,0,1,3.27,1.141v2.489a11.99,11.99,0,0,0-6.051-1.769,6.422,6.422,0,0,0-4.709,1.9,6.745,6.745,0,0,0,0,9.418,6.814,6.814,0,0,0,4.928,1.842,11.5,11.5,0,0,0,3.5-.671l.232-.074v-3.55h-3.282Z" transform="translate(-858.913 -459.846)"/></g><g transform="translate(575.546 392.991)"><path d="M636.333,566.012v-8h2a2.892,2.892,0,0,1,1.927.6,2.017,2.017,0,0,1,.713,1.627,2,2,0,0,1-1.352,1.97,3.552,3.552,0,0,1,.751.687,13.971,13.971,0,0,1,1.031,1.518q.418.682.67,1.025l.424.573h-1.363l-.349-.527c-.011-.019-.034-.051-.068-.1l-.223-.315-.355-.585-.383-.624a6.2,6.2,0,0,0-.65-.784,2.475,2.475,0,0,0-.533-.42,1.8,1.8,0,0,0-.8-.129h-.3v3.482Zm1.489-7.027h-.344v2.526h.435a3.233,3.233,0,0,0,1.194-.149,1.121,1.121,0,0,0,.5-.45,1.3,1.3,0,0,0,.181-.684,1.222,1.222,0,0,0-.2-.685,1.071,1.071,0,0,0-.564-.432A4.061,4.061,0,0,0,637.822,558.985Z" transform="translate(-636.333 -557.896)"/><path d="M668.3,557.867h.8l3.587,8.047h-1.172l-1.066-2.371h-3.414l-1,2.371h-1.177Zm1.683,4.656-1.291-2.9-1.2,2.9Z" transform="translate(-655.815 -557.798)"/><path d="M706.149,563.935v1.26a5.98,5.98,0,0,1-2.909.687,4.485,4.485,0,0,1-2.274-.538,3.959,3.959,0,0,1-1.477-1.484,4.025,4.025,0,0,1-.544-2.045,3.9,3.9,0,0,1,1.245-2.938,4.275,4.275,0,0,1,3.073-1.192,7.215,7.215,0,0,1,2.8.659v1.232a5.513,5.513,0,0,0-2.743-.8,3.172,3.172,0,0,0-2.282.868,3.062,3.062,0,0,0-.014,4.339,3.186,3.186,0,0,0,2.285.847A5.185,5.185,0,0,0,706.149,563.935Z" transform="translate(-679.081 -557.674)"/><path d="M741.737,558.011h1.431l-3.47,3.8,4.324,4.2h-1.564l-4.089-3.952v3.952h-1.145v-8h1.145v3.66Z" transform="translate(-705.216 -557.896)"/><path d="M772.523,558.011h4.536v1.02h-3.391v2.44h3.276V562.5h-3.276v2.486h3.5V566h-4.645Z" transform="translate(-729.317 -557.896)"/><path d="M808.532,558.011h1.088v8h-.985l-5.349-6.162v6.162h-1.077v-8h.928l5.395,6.214Z" transform="translate(-749.585 -557.896)"/><path d="M842.095,558.011h4.267v1.02H843.24v2.233h3.121v1.02H843.24v3.728h-1.146Z" transform="translate(-776.817 -557.896)"/><path d="M872.661,557.65a4.3,4.3,0,0,1,3.088,1.174,3.9,3.9,0,0,1,1.233,2.944,3.833,3.833,0,0,1-1.245,2.929,4.427,4.427,0,0,1-3.14,1.16,4.173,4.173,0,0,1-3.014-1.16,3.867,3.867,0,0,1-1.2-2.907,3.955,3.955,0,0,1,1.213-2.967A4.233,4.233,0,0,1,872.661,557.65Zm.046,1.088a3.1,3.1,0,0,0-2.257.859,2.927,2.927,0,0,0-.884,2.194,2.871,2.871,0,0,0,.887,2.153,3.292,3.292,0,0,0,4.454-.017,2.93,2.93,0,0,0,.9-2.182,2.862,2.862,0,0,0-.9-2.139A3.042,3.042,0,0,0,872.707,558.738Z" transform="translate(-794.763 -557.65)"/><path d="M909.136,566.012v-8h2a2.893,2.893,0,0,1,1.927.6,2.018,2.018,0,0,1,.713,1.627,2,2,0,0,1-1.352,1.97,3.543,3.543,0,0,1,.75.687,13.864,13.864,0,0,1,1.031,1.518q.418.682.67,1.025l.424.573h-1.363l-.349-.527c-.011-.019-.034-.051-.068-.1l-.223-.315-.355-.585-.383-.624a6.207,6.207,0,0,0-.65-.784,2.47,2.47,0,0,0-.533-.42,1.8,1.8,0,0,0-.8-.129h-.3v3.482Zm1.489-7.027h-.344v2.526h.435a3.23,3.23,0,0,0,1.194-.149,1.122,1.122,0,0,0,.5-.45,1.306,1.306,0,0,0,.181-.684,1.222,1.222,0,0,0-.2-.685,1.07,1.07,0,0,0-.564-.432A4.054,4.054,0,0,0,910.625,558.985Z" transform="translate(-822.589 -557.896)"/><path d="M940.488,566v-7.99h2.7a5.692,5.692,0,0,1,2.583.49,3.7,3.7,0,0,1,1.512,1.44,4,4,0,0,1,.561,2.073,3.944,3.944,0,0,1-2.548,3.688,4.028,4.028,0,0,1-.831.238,11.13,11.13,0,0,1-1.443.06Zm2.577-6.97h-1.432v5.951H943.1a5.842,5.842,0,0,0,1.335-.118,3.127,3.127,0,0,0,.793-.3,2.717,2.717,0,0,0,.581-.444,2.963,2.963,0,0,0,.848-2.171,2.747,2.747,0,0,0-.871-2.1,2.786,2.786,0,0,0-.736-.5,3.09,3.09,0,0,0-.788-.258A8.039,8.039,0,0,0,943.065,559.031Z" transform="translate(-843.995 -557.896)"/></g><path d="M780.331,349.744c-.126-.209-.154-.4-.8-.415a8.485,8.485,0,0,1-1.483-.094c-.112-.129.054-.38.08-.568a1.027,1.027,0,0,0-.192-.634,2.974,2.974,0,0,0-.436-.907c-.444-.76-.785-2.082-1.165-2.655a12.249,12.249,0,0,1-.849-1.992.412.412,0,0,0-.37-.276,2.929,2.929,0,0,1-2.322-1.089c-.745-1.179.25-2.443.736-3.823.054-.153.068-.181.116-.326.072-.215.172.288.3.007.454-1.008.306-2.144-.922-2.328-1.475-.221-2.8-.924-4.16-1.162s-3.643-.306-5.953-.584-4.259-2.014-5.554-2.239a1.676,1.676,0,0,1-1.574-2.152,7.081,7.081,0,0,0,.1-2.326c-.088-.267-.8-1.1-.044-1.069s1-.109,2.148-.76.344-.8-.322-.863-2.251.069-2.378-.195.707-.256,2.041-.644.6-.784,2.324-1.239,1.437-.948,3.314-1.216,2.3-.725,2.331-1-1.372.232-2.164.414-.58-.1-.2-.3,1-.621.139-.464-.52-.2-.458-.734.681-1.238.4-1.14a2.26,2.26,0,0,0-.938,1.4c-.209.734-.224,1-1.176,1.1-.69.074-.624-.38-.671-.905s.732-1.421.426-1.36a.739.739,0,0,0-.617.518c-.163.336-.373,1.521-.69,1.274s.313-1.269.5-2.065-.12-.377-.422,0a6.631,6.631,0,0,0-.6,2.56c-.056.845-.727.99-1.75.935s-.689-1.806-.527-2.363.869-1.3,0-.67-.7,2.41-.52,3-.057.55-.459,1.122-1.622.506-1.443-.245c.3-1.241,1.433-1.427,1.359-1.692s-1.04.162-1.36.508a6.342,6.342,0,0,0-.7,1.151.188.188,0,0,1-.239.094c-1.208-.514-.578-1.647-.326-2.074.262-.444.7-.693.376-.6a1.784,1.784,0,0,0-1.387,1.53,2.327,2.327,0,0,0,.738,1.583.815.815,0,0,1,.108.844l-.013.025a.857.857,0,0,1-.625.454l-3.745.416a.546.546,0,0,0-.462.7l.106.344a.731.731,0,0,0,.415.458l.049.013a3.635,3.635,0,0,1,1.754,1.048l.69.745a.538.538,0,0,1-.068.793h0a1.652,1.652,0,0,0-.648,1.226l-.165,3.089a3.887,3.887,0,0,0,.865,2.658l.448.551a1.173,1.173,0,0,1,.258.623,3.029,3.029,0,0,1,.156,1.534c-.153.776-1.653.918-2.505.987s-1.923.8-1.84,1.648a8.621,8.621,0,0,1-.8,2.871c-.188.538.126.869.388,1.479s.9.875,1.557,1.167.341-1.127-.2-1.5-.35-.48-.494-1.016a5.281,5.281,0,0,1,.753-2.6c.434-.872,1.173-.489,2.754-.3s1.988.258,2.522.064a2.267,2.267,0,0,1,2.258.335c.694.655-.031,1.862.117,3.411a11.653,11.653,0,0,1,.041,2.371c-.027.645-.614.775-.785,1.172s-.336.835-.855.976c-.345.094-.717.17-1.1.235-.636.108-1.556.355-2.2.424-.827.09-3.125,0-3.708.117-.622.127-.945.258-1.06.528a.524.524,0,0,0-.051.254c.025.174.1.174.386.174h33.441C780.559,350.092,780.391,349.824,780.331,349.744Zm-15.38-2.154a1.077,1.077,0,0,0-.517.413.514.514,0,0,1-.442.232,17.578,17.578,0,0,0-3.487.093,16.686,16.686,0,0,1-3.775-.093.128.128,0,0,1-.127-.15c.114-.667.74-2.9.86-3.418.132-.568.44-1.858.454-2.084a7.558,7.558,0,0,1,.422-1.987c.206-.253,3.013,1.178,4.746,1.178s2.6-.7,3.162-.441a5.492,5.492,0,0,1,1.724,2.567c.16.72-.7,1.5-1.214,2A9.014,9.014,0,0,1,764.952,347.589Zm11.806,1.636c-.18-.013-1.362-.159-2.73-.314-.88-.1-1.522-.014-2.339-.088-.506-.045-1.376-.276-1.924-.316-1.715-.125-3.371-.233-3.3-.4a17.108,17.108,0,0,1,3.586-3.952,1.114,1.114,0,0,0,.407-.513.2.2,0,0,1,.264-.121c.92.376,2.9.24,4.135,1.173,1.377,1.044,1.775,3.256,1.881,3.511S777.054,349.246,776.758,349.225Z" transform="translate(-136.006)"/></g></svg>