<?xml version="1.0" encoding="utf-8"?>
<!-- Generator: Adobe Illustrator 23.0.1, SVG Export Plug-In . SVG Version: 6.00 Build 0)  -->
<svg version="1.1" id="Layer_1" xmlns="http://www.w3.org/2000/svg" xmlns:xlink="http://www.w3.org/1999/xlink" x="0px" y="0px"
	 viewBox="0 0 529 279" style="enable-background:new 0 0 529 279;" xml:space="preserve">
<style type="text/css">
	.st0{fill:#FFFFFF;}
</style>
<g>
	<g>
		<g>
			<g>
				<path class="st0" d="M320.7,115.8l-2.9,0.1c0.3-2.7,0.2-4.3-0.2-7.1c-0.6-3.5-1.3-5.5-3-8.5l-0.3,0.1c0.7,1.6,1.2,3,1.6,4.3
					h-0.3c-2.2,0.2-3.7,1.3-4.7,3.3c-0.7,1.3-0.8,2.2-0.7,3.7v0.2l-2.4-0.3c0.2-0.9,0.6-1.7,1.2-2.5c0.3-0.4,0.5-0.8,0.8-1.3
					c0.5-1,1.4-2.6,0.6-5c-0.7-2-1.5-2.8-2.3-3.6c-0.6-0.6-1.2-1.1-1.7-2.1c-0.8-1.6-1-2.8-1.2-4.9l-0.1-1l-0.2,0.9
					c-0.6,2.7-0.1,5.5,1.4,7.5c0.3,0.4,0.6,0.8,0.8,1.1c0.8,1,1.5,1.9,1.7,3.2c0.2,1.9-0.5,2.9-1.4,4.3c-0.3,0.4-0.6,0.9-0.9,1.4
					c-0.7,1.3-1,2-1.4,4v0.2l5.2-1.8l0.1,0.5l0.1-0.5l0.2-0.1h-0.2v-0.2c0.2-1.2,0.5-1.8,1-2.8c1.1-2,2.1-2.9,4.2-3.9l0.3-0.1
					c0.5,1.9,0.7,3.7,0.7,6.2c0,3.1-0.3,4.9-1.2,7.9l-0.1,0.4L320.7,115.8z M310.8,40.2c0.3,0.3,0.3,0.7,0.1,1.3
					c-1.3,4.3-16,13.7-21.4,15.5l0.1,0.3c14.4-4.4,24.1-13.2,23.6-16.2c-0.1-0.6-0.5-1.2-2.3-1.1h-0.3L310.8,40.2z M287.2,56.4
					c-0.7,0-1.6,0.1-2.6,0.3c0.3-0.3,0.5-0.5,0.6-0.8c0.1-0.2,0.1-0.5,0-0.7c-0.2-0.5-1-0.8-2.3-0.8c-0.9,0-1.9,0.1-3.1,0.4v0.3
					c0.6-0.1,1.2-0.1,1.7-0.1c0.9,0,1.4,0.2,1.6,0.5c0.3,0.6-0.5,1.9-1.9,2.8l0.1,0.3c1.4-0.6,2.5-1.3,3.2-1.9V57
					c0.5,0,1-0.1,1.5-0.1c0.7,0,1.1,0.1,1.2,0.4c0.2,0.5-0.4,1.6-1.6,2.3l0.1,0.3c2.2-1,3.5-2.1,3.2-2.9
					C288.9,56.6,288.3,56.4,287.2,56.4 M296.3,79.9l-0.6-0.2l0.3-2.2c0.7,0.1,1,0.3,1.6,0.7c0.7,0.5,1.2,0.9,1.6,1.3
					c0.3,0.3,0.7,0.6,1.1,0.9c1.1,0.8,2.8,1.4,4.5,1.5l1.4,0.1l-1.3-0.3c-1.3-0.3-2.1-0.6-3.3-1.4c-0.8-0.6-1.5-1.4-2.2-2
					c-0.5-0.6-1-1.1-1.4-1.4c-0.8-0.6-2.2-0.9-3.3-0.9h-0.2l1.2,3.9l-0.4-0.1l0.9,0.6c0.9,0.6,1.4,1,2.2,1.7c0.4,0.4,0.8,0.8,1,1.1
					c0.3,0.4,0.7,0.9,1.2,1.3c1.1,0.9,2.1,1.2,3.6,1.4l0.1-0.3c-1-0.2-1.7-0.6-2.4-1.1c-0.5-0.4-0.8-0.8-1.1-1.3
					c-0.3-0.4-0.6-0.9-1.1-1.3C298.5,80.7,297.7,80.3,296.3,79.9 M307.5,69.3c-0.4-1.1-0.5-1.8-0.4-2.9v-0.9l-0.3,0.8
					c-0.5,1.4-0.5,2.4-0.1,3.7c0.6,1.9,1.8,3.1,3.7,3.6l0.8,0.2l-0.7-0.5C308.9,72.3,308.1,71.2,307.5,69.3 M302.7,69
					c-0.1,0.1-0.1,0.2-0.1,0.3c0,0.1,0,0.2,0.1,0.2l0,0c-0.2,0.1-0.4,0.1-0.6,0.1c-0.1,0-0.2,0-0.3-0.1c0,0,0-0.1,0-0.2
					c0-0.3,0.3-0.7,0.7-1.1c-0.2,0.2-0.3,0.3-0.3,0.5c0,0.1,0,0.2,0.1,0.2C302.3,68.9,302.4,69,302.7,69
					C302.5,69.1,302.6,69,302.7,69 M309.2,83.4l0.1-0.3c-3.3-1.3-3.6-3.1-3.7-5.5c0-0.5,0-1,0-1.5c0.1-1,0.1-1.8-0.3-2.9
					c-0.5-1.5-1.1-2.3-2.3-3.2c0.2-0.1,0.4-0.3,0.6-0.4l0.9-0.7l-0.2-0.2c-0.1,0.1-0.2,0.2-0.4,0.2c0.1-0.1,0.1-0.2,0.1-0.3
					c0-0.1,0-0.2-0.1-0.2c0-0.1-0.1-0.1-0.3-0.1c-0.1,0-0.2,0-0.3,0.1c0.1-0.1,0.1-0.3,0-0.4c0,0-0.1-0.1-0.2-0.1
					c-0.2,0-0.4,0.1-0.6,0.3c0.3-0.3,0.6-0.6,1-0.9c0.9-0.7,1.9-1.1,2.5-1.1c0.1,0,0.2,0,0.2,0.1l0.3,0.2l-0.1-0.4
					c0-0.1,0-0.1-0.1-0.2c-0.1-0.2-0.4-0.3-0.7-0.3c-0.8,0-1.9,0.5-3.1,1.3c-1.3,1-2.5,2.3-2.2,3.1h-0.2l0.4,0.2
					c1.3,0.8,1.9,1.5,2.7,2.7c0.9,1.3,0.9,2.8,0.9,4.2c0,1.1,0,2.2,0.5,3C305.8,82.2,307.3,82.8,309.2,83.4 M304.3,162.7
					c0,14.5-6.8,24.2-16.8,24.2c-10.5,0-16.6-8.8-16.6-24.2c0-14.5,6.7-24.2,16.6-24.2C297.5,138.5,304.3,148.2,304.3,162.7
					 M287.5,135.6c-14.3,0-25.9,12-25.9,26.8c0,14.7,11.6,26.7,25.9,26.7s25.9-12,25.9-26.7C313.3,147.6,301.7,135.6,287.5,135.6
					 M257.6,113.1c1.6,1.7,3.1,2.4,5.5,2.7c0.2,0,0.4,0,0.6,0c1.2,0,2.2-0.4,3.2-0.9c0.7-0.3,1.5-0.7,2.4-0.9
					c1.8-0.4,3.4-0.5,4.8-0.6s2.8-0.2,4.4-0.5c5-1,11.2-5.5,13.5-12.3c2.7-8.1,0.2-16-6.8-21l-0.2,0.2c2.3,2.2,3.3,3.9,4.5,6.6
					c1.9,4.6,1.7,8.7-0.8,13.9c-2.4,5.2-5.4,7.8-10.6,9.6c-2,0.7-3.6,0.7-5.2,0.8c-1.5,0.1-3.1,0.1-5,0.7c-0.9,0.3-1.6,0.7-2.2,1.1
					c-0.9,0.5-1.7,1-2.9,1.1c-0.4,0-0.8,0.1-1.2,0.1c-1.3,0-2.4-0.3-3.9-1l-0.8-0.4L257.6,113.1z M276.8,80
					c-1.9,1.9-2.1,4.7-0.5,6.9l0.4,0.6l-0.1-0.7c-0.4-2.1,0-3.8,1.6-5.3c0.5-0.5,1.1-0.6,1.8-0.7c0.8-0.1,1.6-0.2,2-1.1
					c0.3-0.6,0.2-1.1,0-1.6c-0.1-0.4-0.2-0.8,0-1.3c0.2-0.6,0.6-0.9,1-1.2c0.5-0.3,0.9-0.7,1.1-1.4c0.3-0.9-0.2-1.6-0.7-2.3
					c-0.4-0.7-0.9-1.3-0.6-2.1c0.3-0.9,0.6-1.4,1.3-1.9l0.6-0.5l-0.7,0.2c-1.4,0.4-2.2,1.2-2.8,2.5c-0.3,0.7-0.1,1.4,0.1,2
					s0.4,1.2,0.1,1.8c-0.2,0.4-0.5,0.7-0.9,0.9c-0.4,0.3-0.8,0.6-1,1.1s0,0.9,0.2,1.3s0.3,0.7,0.1,1.2c-0.2,0.6-0.8,0.7-1.3,0.8
					C277.8,79.5,277.2,79.6,276.8,80 M279,63.5l-0.1,0.3c1.9,1.1,3.9,1.9,6.1,2.2c0.9,0.1,1.8,0.2,2.6,0.2c5.2,0,9.9-2.4,12.8-6.3
					l-0.2-0.2c-3.5,3.5-8.3,5.5-13.3,5.5c-1,0-2-0.1-2.9-0.2C282.2,64.7,280.5,64.2,279,63.5 M282.9,58.7c-1,0-2.2,0.2-3.5,0.4v0.3
					c0.7-0.1,1.4-0.1,2-0.1c1.1,0,1.6,0.2,1.8,0.6c0.3,0.7-0.5,2.2-2.2,3.2l0.1,0.3c2.3-1,4-2.1,4.3-3c0.1-0.3,0.1-0.5,0-0.7
					C285.3,59.1,284.4,58.7,282.9,58.7 M287.2,61.3v0.3c9.4-0.7,18-5.7,17.6-10.1h-0.3C304.1,55.3,295.3,59,287.2,61.3 M312,76.5
					c-0.1-0.3-0.6-2.5-0.6-2.5l-0.1-0.5l-0.2,0.5c0,0.1-0.5,1.6-0.4,2.3c0.2,1,1,1.9,2.1,2.3l0.7,0.2l-0.5-0.5
					C312.5,77.9,312.1,77.3,312,76.5 M299.8,91.3l-0.3-1.7c0.6-0.4,0.9-0.5,1.8-0.5c0.2,0,0.4,0,0.6,0c0.3,0,0.6,0,0.8,0
					c0.4,0,0.9,0,1.4-0.2c0.9-0.3,1.4-0.7,1.9-1.2c0.4-0.4,0.8-0.7,1.5-1c1.5-0.7,2.4-1,4.1-1.2l1.3-0.2l-1.3-0.1
					c-0.5,0-0.9-0.1-1.2-0.1c-1,0-1.8,0.1-3,0.5c-0.8,0.2-1.4,0.6-2,1s-1.1,0.8-2,1c-0.3,0.1-0.6,0.1-1,0.1c-0.3,0-0.5,0-0.8,0
					s-0.5,0-0.8,0c-0.4,0-0.8,0.1-1.2,0.2c-1,0.3-1.5,0.6-2.4,1.3l-0.1,0.1l2.2,2.2l-0.3,0.1h0.3l0.3,0.3l-0.1-0.3l0.5-0.1
					c2.3-0.2,3.6-0.3,5.8-0.2c2.6,0.1,4.1,0.2,6.7,0.6l1,0.2l-1-0.4c-2.5-1.2-4.2-1.5-7-1.5C303.3,90.2,302,90.5,299.8,91.3
					L299.8,91.3z M239.3,181.8c1,0,1.1,0.7,1.1,1.2s0.7,0.8,1.3,0.8c0.7,0,1.2-0.3,1.2-0.8c-0.1-1.4-0.1-2.7-0.1-3.8
					c0-2,0.2-3.7,0.4-5.7c0.1-1.2,0.2-2.3,0.3-3.8c0-0.5-0.5-0.8-1.3-0.8s-1.3,0.3-1.3,0.7c-0.9,8.9-7.7,15.2-16.5,15.2
					c-10.8,0-17.5-8.5-17.5-22.2c0-15.8,6-24.9,16.5-24.9c10.3,0,16.6,5.9,17.8,16.7c0,0.5,0.5,0.8,1.2,0.8c0.8,0,1.3-0.3,1.3-0.8
					c-0.2-2.9-0.3-5.5-0.3-7.8c0-2.4,0.1-5,0.3-7.9c0-0.5-0.5-0.8-1.3-0.8s-1.2,0.3-1.2,0.8c0,0.8-0.8,2.2-2,2.2
					c-0.4,0-0.8-0.3-1.3-0.8c-3.4-3.2-9-5.1-15-5.1c-14.5,0-25.4,11.5-25.4,26.8c0,15.4,10.3,26.5,24.6,26.5
					c6.7,0,10.9-2.2,15.2-5.4C238.4,182,239,181.8,239.3,181.8 M215.3,114.2c-1.1-1.6-3.4-5-2.3-13.4h-0.3c-1.9,9.7,0.1,12.6,1.1,14
					c0.2,0.3,0.4,0.6,0.4,0.8l-2.3-0.1l3.8,3.7v-0.3c0-0.5,0.1-0.9,0.2-1.3c0.2-0.9,0.3-1.7-0.2-2.6
					C215.6,114.7,215.4,114.4,215.3,114.2 M214.2,90.8l-1.1,0.3h1.2c2.4,0,3.7,0.2,6.1,0.8c2.7,0.7,4.2,1.3,6.6,2.7l0.9,0.6
					l-0.8-0.8c-2.1-2.2-3.9-3.1-6.9-3.7c-1.1-0.2-1.9-0.3-2.7-0.3C216.5,90.3,215.5,90.5,214.2,90.8 M218.6,111.3
					c0.5,0.8,1,1.6,1.1,2.5l-2.8,0.3l5.6,2v-0.2c-0.4-2.1-0.7-2.7-1.4-4c-0.3-0.5-0.6-1-0.9-1.4c-0.9-1.4-1.6-2.4-1.4-4.3
					c0.1-1.4,0.8-2.2,1.7-3.2c0.3-0.3,0.6-0.7,0.9-1.1c1.4-2,2-4.8,1.4-7.5l-0.2-0.9l-0.1,1c-0.2,1.9-0.3,3.2-1.2,4.9
					c-0.5,1-1.1,1.5-1.7,2.1c-0.8,0.8-1.7,1.6-2.3,3.6c-0.8,2.3,0.1,4,0.6,5C218.1,110.5,218.4,110.9,218.6,111.3 M221.1,87.4
					l-1-0.9l0.8,1.1c1,1.3,2.4,2.4,3.7,2.9c0.5,0.2,0.9,0.3,1.4,0.4c0.5,0.2,1.1,0.3,1.9,0.6c0.7,0.2,1,0.4,1.5,0.9l-1.7,1.5l4-1.2
					l-0.1-0.2c-0.6-0.8-1.6-1.8-2.6-2.2c-0.5-0.2-1.2-0.3-2-0.4c-0.9-0.2-1.9-0.3-2.9-0.7C222.8,88.8,222.2,88.3,221.1,87.4
					 M223.4,86.9l-0.2,0.2c0.9,0.7,1.6,1.1,2.7,1.2c0.5,0.1,1,0,1.4,0s0.8-0.1,1.2-0.1c0.9,0.1,1.3,0.1,2.1,0.3l1.1,0.2l-1-0.5
					c-1-0.5-1.7-0.7-2.8-0.8c-0.5-0.1-0.9,0-1.3,0.1c-0.3,0.1-0.6,0.1-0.9,0.1c-0.1,0-0.3,0-0.4,0C224.5,87.5,224,87.3,223.4,86.9
					 M67.4,178c0.1-1.9,0.2-3.5,0.2-4.6c0-0.5-0.5-0.8-1.4-0.8c-1,0-1.7,0.5-1.8,1.2c-0.6,7-2.1,10-13.9,10
					c-6.4,0-10.1-1.4-10.1-8.8c0-3.1,0.1-8.9,0.2-14.4c0.1-6.3,0.2-12.3,0.2-14.6c0-2.1,0.5-3.7,1.5-4.7c1.3-1.3,3.3-1.9,6.3-1.9
					c0.6,0,0.6-1.2,0.6-1.3c0,0,0-1.3-0.6-1.3c-2,0-3.9,0.1-5.8,0.1c-1.8,0.1-3.5,0.1-5.1,0.1c-4.7,0-8-0.1-11.2-0.3
					c-0.6,0-0.6,1.1-0.6,1.5c0,0.7,0.2,1.1,0.5,1.1c5.4,0,6.3,1.7,6.3,5.6c0,1.1,0,3.4,0,6.2c0,5,0.1,11.8,0.1,17.8v9.5
					c0,5.7-4.9,6.6-8.6,6.8h-0.1c-0.5,0.2-0.5,1.4-0.5,1.4c0,0.6,0.3,1.1,0.6,1.1l0,0l0,0c4-0.2,7.8-0.3,10.3-0.3
					c2.9,0,10.7-0.1,17.6-0.1c5.8,0,11.2-0.1,12.9-0.1c1.5,0,2-0.2,2-2.2C67.1,182.9,67.3,180.3,67.4,178 M130.1,138.1
					c0-0.1,0-1.3-0.6-1.3c-3.8,0.2-5.9,0.3-8.7,0.3c-3.3,0-5.9-0.1-8.9-0.4c-0.6,0-0.6,1.1-0.6,1.4c0,0.8,0.1,1.2,0.5,1.2
					c4.3,0,7.1,2.3,7.1,5.7c0,0.9,0.1,4.1,0.1,8.1c0.1,6.5,0.2,14.7,0.2,18.3c0,7.7-5.4,12.4-14,12.4c-8.5,0-13.6-4.5-13.6-12
					c0-4.7,0.1-15.5,0.1-21.3c0-2.3,0-3.9,0-4.2c0-6.5,3.2-6.8,6.5-7.1h0.1c0.5,0,0.5-0.7,0.5-1.3c0-0.5-0.1-1.3-0.6-1.3
					c-3.2,0.2-7.1,0.3-10.9,0.3s-7.2-0.1-10.6-0.4c-0.5,0-0.7,0.9-0.7,1.4c0,0.3,0,1.2,0.6,1.2c3.2,0,6.9,0.7,6.9,5.7
					c0,2.1-0.1,6.6-0.2,11.5c-0.1,5.5-0.2,11.1-0.2,14.1c0,13.5,10,18.3,18.5,18.3c12.2,0,20.8-6.8,20.8-16.5
					c0-3.8,0.1-12.2,0.1-18.4c0-3.8,0.1-6.8,0.1-7.6c0-5.5,2.5-6.8,6.6-7.1C130.1,139.3,130.1,138.2,130.1,138.1 M179.9,173.3
					c0-10.8-8.5-14.1-16-16.9c-6.2-2.4-11.5-4.4-11.5-10c0-4.8,3.7-8.3,8.9-8.3c9.7,0,11.2,7.6,11.2,12.2c0,0.6,0.6,1,1.5,1
					c0.7,0,1.5-0.3,1.5-0.9c0-2.2,0.4-7.3,0.6-10.4c0.1-1.5,0.2-2.3,0.2-2.4c0-0.5-0.7-0.8-1.4-0.8c-0.4,0-0.8,0.2-0.9,0.5
					c-0.3,0.9-0.8,1.4-1.5,1.4c-0.3,0-0.9-0.3-1.6-0.7c-1.8-1-4.9-2.6-9.8-2.6c-7.4,0-15,5.1-15,13.7c0,9.5,7.5,12.5,14.8,15.3
					c6.5,2.5,12.6,4.9,12.6,11.9c0,5.7-4.3,9.5-10.7,9.5c-8.9,0-14.7-6-14.7-15.3c0-0.7-0.9-0.7-1.2-0.7c-0.5,0-1.9,0.2-1.9,0.9
					c0,2.8-0.5,12.2-1.1,14.7c0,0.9,1.2,1.2,1.9,1.2c0.6,0,1-0.3,1-0.6c0-0.4,0.5-2.2,1.4-2.2c0.5,0,1.2,0.5,2,1.1
					c2.1,1.5,5.6,4.1,12.7,4.1C171.2,188.8,179.9,184,179.9,173.3 M198.1,104.6c-0.1,0.3-0.5,0.6-0.7,0.7c-0.1-0.2-0.2-0.6-0.1-0.9
					c0-0.2,0.1-0.3,0.2-0.3c0,0,0.1,0,0.2,0c0.2,0,0.4,0.1,0.5,0.3C198.2,104.3,198.2,104.4,198.1,104.6 M215.3,66.5l0.4-1.4
					l-0.6,1.3c-0.7,1.4-0.8,2.4-1,4.1c-0.2,3.2-0.5,5.3-1.5,8.7c-0.7,2.1-1.7,3.6-2.6,5.1c-1.1,1.6-2.2,3.3-2.8,5.7
					c-0.2,1-0.3,1.8-0.4,2.6c-0.1,0.6-0.1,1.2-0.3,1.9c-0.4,2.1-1.5,3.9-2.5,5.7c-0.8,1.3-1.6,2.6-1.9,3.9l-0.1-0.6l-0.1,1
					c-0.1,1.1-1.1,1.9-2.2,1.9c-0.2,0-0.3,0-0.5-0.1c-0.3-0.1-0.5-0.2-0.7-0.3c0.3-0.2,0.5-0.4,0.6-0.7c0.2-0.4,0.1-0.8,0-1.1
					c-0.3-0.6-0.9-1-1.6-0.8c-0.6,0.1-0.9,0.7-1,1.2c-0.1,0.3-0.1,0.5-0.1,0.7c-0.4-0.3-0.7-0.7-0.8-1.3c-0.1-0.9,0.1-1.5,0.8-2.1
					l0.5-0.4l-0.7,0.2c-1.5,0.4-2.4,1.9-2,3.4c0.2,0.8,0.5,1.5,1.4,1.8c0.5,0.2,0.8,0.2,1.2,0.1c0.5,0.7,1,1,1.9,1.2
					c0.2,0,0.3,0,0.5,0c0.9,0,1.7-0.4,2.4-1.2c0.2-0.2,0.3-0.5,0.4-0.7c0.1,0.8,0.4,1.6,1.1,2.5c0.9,1.1,1.9,1.6,2.9,2.1
					c0.5,0.2,0.9,0.5,1.5,0.8c1.5,0.8,2.3,1.9,3.4,3.2c0.2,0.2,0.4,0.4,0.6,0.7l0.8,1l-0.7-1.4c-0.9-1.7-1.5-2.8-3-4.1
					c-0.5-0.4-1-0.6-1.4-0.9c-0.9-0.4-1.7-0.9-2.2-1.9c-1-2,0-3.8,1-5.6c0.2-0.3,0.3-0.6,0.5-0.9c1.4-2.5,1.7-3.6,2.4-6
					c0.3-1.3,0.4-2.3,0.4-3.4c0.1-1,0.1-2.1,0.4-3.3c0.5-1.9,1.4-3.2,2.2-4.5c0.9-1.3,1.7-2.7,2.2-4.6c0.6-2.3,1-3.7,0.9-6.2
					C214.6,70.3,214.8,68.3,215.3,66.5 M224.4,68.6L224,68v0.7c0.1,1.1-0.1,1.8-0.5,2.7c-0.8,1.7-2,2.6-3.8,2.9h-0.2l-0.1-0.1
					c-1.1-0.6-1.8-1.3-2.5-2.5c-1.2-2-1.1-3.4-0.6-5.4l-0.3-0.1c-0.9,2.5-1.2,4.1-0.1,6.4c0.5,1.1,1.6,2.3,2.9,2.7h0.1v-0.1
					c0.1-0.2,0.3-0.6,0.5-0.7l0,0l0.3,0.1c0.4,0.1,0.8,0.2,1.1,0.2c1.6,0,3-1,3.7-2.5C225.1,71,225,69.8,224.4,68.6 M220.8,75.9
					l-0.1,1c-0.1,0.4-0.4,0.7-0.8,0.7c-0.4,0-0.8-0.4-0.8-0.8s0.3-0.7,0.7-0.8L220.8,75.9z M220.9,76.9l-0.1-1l0,0l0,0l0,0l0,0
					l-1-0.1c-0.1,0-0.1,0-0.2,0c-0.8,0-1.4,0.6-1.4,1.3s0.6,1.3,1.4,1.3c0.8,0,1.4-0.6,1.4-1.3C221,77,221,76.9,220.9,76.9
					 M230.7,88.2l3.3-2.5l-0.2-0.1c-0.9-0.5-2.2-1-3.2-1l0,0c-0.5,0-1.2,0.1-1.9,0.3c-0.9,0.2-1.9,0.4-2.9,0.4c-0.1,0-0.2,0-0.2,0
					c-1.2,0-2-0.2-3.3-0.6h-0.1c0.3-0.1,0.6-0.2,0.9-0.3c1.2-0.5,1.9-0.9,2.7-1.8c1-1.1,0.8-2.4,0.7-3.6c-0.1-1.1-0.3-2.2,0.3-3.3
					c0.7-1.2,1.2-1.8,2.3-2.6l0.3-0.2h-0.1c0.1,0,0.2-0.1,0.2-0.1c0.5-0.6-0.4-2.1-1.5-3.2c-1-1-2.1-1.6-2.7-1.6
					c-0.2,0-0.4,0.1-0.5,0.2l-0.1,0.1l-0.2,0.4l0.4-0.2c0.3-0.1,1.2,0.3,2.3,1.3c1.1,1.1,1.6,2.1,1.4,2.3c-0.1,0.2-0.7,0-1.4-0.5
					l0,0c0.1,0,0.1,0.1,0.2,0.1c0.1,0,0.2,0,0.2-0.1c0.2-0.2,0-0.5-0.2-0.7c-0.3-0.3-0.6-0.4-0.7-0.2c-0.1,0.1-0.1,0.2-0.1,0.3
					c-0.1,0-0.2-0.1-0.3-0.1l0,0l-0.9-0.8l0.7,1v0.1c0,0.2,0.1,0.4,0.3,0.6s0.4,0.3,0.6,0.3c0.2,0.2,0.5,0.4,0.7,0.6l0,0
					c-1.1,1-1.6,1.7-2.3,3c-0.5,1.1-0.4,2.1-0.3,3.1c0.1,1.1,0.2,2.1-0.5,3.1c-0.8,1.3-1.9,2.1-3.3,2.6h-0.1l0.1,0.1
					c-0.8,0.3-1.7,0.4-2.7,0.4c-0.5,0-1,0-1.5-0.1l-0.1,0.3c0.8,0.2,1.5,0.3,2.3,0.3c0.9,0,1.8-0.1,2.8-0.4l0.3,0.2
					c1.4,0.8,3.2,1.3,4.5,1.3c0.6,0,1-0.1,1.4-0.1c0.6,0,1.1-0.1,2-0.1c0.7,0,1.1,0,1.7,0.3L230.7,88.2z M235.6,90
					c-0.7,8.4,4.3,18.4,20.5,21.5v0.1l0.1-0.1c0.1,0,0.1,0,0.2,0l0,0h0.2v-0.1v-0.2h-0.2c0.5-0.4,1-0.5,1.7-0.5
					c0.3,0,0.5,0.1,0.7,0.3c0.2,0.1,0.5,0.3,0.8,0.3c0.4,0,0.7-0.2,0.9-0.3c0.3-0.2,0.5-0.3,0.8-0.2c0.6,0.2,0.9,0.7,0.8,1.3v0.4
					l0.3-0.2c0.4-0.4,0.7-1,0.6-1.6c-0.1-0.7-0.4-1.2-1-1.5c-0.1-0.1-0.3-0.1-0.4-0.1c-0.3,0-0.5,0.1-0.8,0.2
					c-0.2,0.1-0.5,0.2-0.8,0.2h-0.1c-0.3,0-0.5-0.1-0.7-0.2c-0.3-0.1-0.5-0.2-0.9-0.2c-1.2,0.1-2,0.9-2.3,2l0,0
					c-13.2-2.5-18.4-12.5-17.6-21.3c0.7-7.8,6.5-16.2,17.7-16.2c2.1,0,4.3,0.3,6.6,0.9l0.1-0.3c-3-1.4-5.9-2.1-8.8-2.1
					C243.6,72.2,236.4,81.2,235.6,90 M259.5,57.7c-0.4-0.1-0.8-0.2-1.2-0.3l0.1-0.2c-0.7-0.4-1-0.9-1-1.2c0-0.1,0-0.1,0-0.2
					c0.1-0.1,0.2-0.1,0.4-0.1c0.4,0,0.9,0.1,1.6,0.2l0.1-0.3c-1-0.3-1.9-0.5-2.5-0.5c-0.4,0-0.7,0.1-0.8,0.3
					c-0.1,0.1-0.1,0.2-0.1,0.3s0.1,0.2,0.2,0.3c-0.8-0.2-1.4-0.4-1.9-0.4c-0.4,0-0.6,0.1-0.7,0.2c-0.1,0.1-0.1,0.2-0.1,0.3
					c0.1,0.4,0.8,0.9,1.8,1.5l0.2-0.3c-0.6-0.4-0.8-0.8-0.8-1c0-0.1,0-0.1,0-0.2c0-0.1,0.2-0.1,0.3-0.1c0.3,0,0.7,0.1,1.3,0.2v-0.1
					c0.5,0.5,1.3,0.9,1.8,1.2c-0.6-0.1-1.2-0.2-1.6-0.2c-0.5,0-0.8,0.1-0.9,0.3c-0.1,0.1-0.1,0.2-0.1,0.4c0.1,0.5,1.1,1.2,2.5,2
					l0.1-0.3c-0.8-0.5-1.1-1.1-1.2-1.4c0-0.1,0-0.2,0-0.3c0.1-0.1,0.2-0.2,0.5-0.2c0.4,0,1,0.1,1.8,0.3L259.5,57.7z M259.6,60.1
					l-0.1-0.3c-1,0.2-2.1,0.3-3.1,0.3c-3.7-0.1-7.3-1.6-9.6-4l-0.2,0.2c1.7,2.6,5.3,4.3,9.1,4.3c0.1,0,0.2,0,0.3,0
					C257.2,60.7,258.4,60.5,259.6,60.1 M259.8,68.1c-0.2-0.3-0.6-0.4-0.9-0.5c-0.4-0.1-0.6-0.2-0.7-0.5c0-0.2,0-0.3,0.1-0.5
					s0.2-0.4,0.2-0.7c-0.1-0.4-0.3-0.5-0.6-0.7c-0.2-0.1-0.4-0.2-0.5-0.5s0-0.5,0.2-0.8c0.1-0.3,0.3-0.6,0.2-1
					c-0.2-0.8-0.8-1.3-1.6-1.5l-0.7-0.1l0.5,0.4c0.4,0.3,0.5,0.5,0.6,1c0.1,0.4-0.2,0.6-0.5,0.9c-0.3,0.3-0.7,0.6-0.6,1.1
					c0.1,0.4,0.4,0.6,0.6,0.8c0.2,0.2,0.5,0.3,0.5,0.6c0,0.2,0,0.4-0.1,0.6s-0.2,0.5-0.1,0.8c0.2,0.6,0.7,0.7,1.2,0.8
					c0.4,0.1,0.8,0.1,1,0.4c0.7,0.8,0.9,1.6,0.6,2.7l-0.1,0.6l0.4-0.4C260.6,70.6,260.6,69.1,259.8,68.1 M240.1,45.5
					c-0.2,0.9,1.5,2.9,4.5,5.1l-0.3,1.1c-0.1,0.5,0,1,0.4,1.5c1.3,2,5.4,4.1,9.9,5.1l0.1-0.3c-4.9-1.8-10-4.4-10-6.2v-1.1
					c2.3,1.7,5.4,3.4,9,4.9l0.1-0.3c-3.3-1.4-11.9-7.4-12.2-9.5c0-0.2,0-0.3,0.2-0.4l0.3-0.2l-0.3-0.1c-0.3,0-0.5-0.1-0.7-0.1
					C240.3,45,240.1,45.3,240.1,45.5 M240.6,34.7l-0.3,0.1c1.3,9,7.3,16.6,15.4,19.4l0.1-0.3C248.5,50.1,243,43.1,240.6,34.7
					 M265.8,73h0.3c0.2-1.3-0.6-2.3-1.6-3.4c-1.7-2-3.7-4.4-2.4-10.5c0.1-0.4,0.2-0.8,0.4-1.1c0.2-0.6,0.5-1.2,0.3-2
					c-0.3-1.3-2.3-2.7-4.6-4.2c-1.5-1-3-2.1-4.3-3.2c-3-2.8-4.9-4.5-6.6-10.3c-0.2-0.8-1.2-3.3-3.6-3.3c-0.1,0-0.3,0-0.4,0h-0.4
					c-0.2,0-0.3,0-0.5,0v0.3h0.5c1.8,0.1,2.8,1.7,3.2,3.1c1.7,6.4,3.8,8.3,6,10.3c0.3,0.3,0.6,0.5,0.9,0.8c1.5,1.4,3.2,2.5,4.6,3.5
					c1.9,1.2,3.3,2.2,3.5,3.2c0.1,0.5-0.1,1.3-0.4,2.1c-0.1,0.4-0.2,0.8-0.3,1.2c-1.4,6.2,1.4,8.7,3.4,10.5
					C265,71,265.9,71.8,265.8,73 M273.2,63.2l0.3-0.3h-0.4c-0.3,0-0.5,0-0.7,0c-0.5,0-1-0.1-1.6-0.2c-1.2-0.3-1.8-0.7-2.7-1.5
					l-0.3-0.3l0.1,0.4c0.1,0.7,0.3,1.2,0.8,1.7c0.4,0.4,0.6,0.7,1.1,0.9c-0.7,1.4-1.1,2.2-1.5,3.8c-0.9,3.5-0.9,5.9,0.1,9.4l0.3-0.1
					c-0.3-3.2-0.1-5.2,1.1-8.3C270.6,66.5,271.4,65.1,273.2,63.2 M311.5,18.6l0.1-0.3c-0.3-0.1-0.6-0.2-0.8-0.2l-0.7-0.2
					c-0.5-0.1-0.9-0.2-1.4-0.2c-3.4,0-5.2,4.3-5.7,5.7c-4,11.3-7.3,14.2-12.8,19c-2.3,2-4.9,3.6-7.5,5.2c-4,2.5-7.4,4.6-8.1,7.1
					c-0.4,1.6-0.2,2.8,0.1,4.1c0.1,0.7,0.3,1.5,0.4,2.3c0.9,12.7-3.2,17.3-6.1,20.6c-1.7,2-3.2,3.6-3.2,6.3h0.3l0,0
					c0-2.6,1.7-4,3.8-5.8c3.6-3.1,8.5-7.3,7.6-20.1c-0.1-0.8-0.1-1.6-0.2-2.4c-0.2-1.7-0.4-3.4-0.1-4.4c0.4-1.9,3-3.5,6.2-5.5
					c2.5-1.6,5.4-3.3,8.1-5.7c0.5-0.5,1.1-0.9,1.6-1.4c4.1-3.6,7.7-6.6,11.8-19c0.9-2.6,2.7-5.5,5.4-5.5c0.2,0,0.3,0,0.5,0
					L311.5,18.6z M316.3,17.1L316,17c-5.6,16.2-16,28.7-28.4,34.4l0.1,0.3C301.1,48.4,312.3,34.8,316.3,17.1 M322.5,97.5
					c-1-2.1-1-3.4-1-5.6c0-0.5,0-1,0-1.7c0-3.1-0.9-5.6-1.9-8.2c-0.3-0.9-0.7-1.9-1-2.9c-0.8-2.5-0.7-4.4-0.5-6.7
					c0-0.6,0.1-1.3,0.1-2l0.1-1.3c0.3-1,0.4-2.2,0.4-3.5h-0.3c-0.3,2.6-0.8,4.2-2.8,5.9c-1.3,1.1-2.2,1.5-3.6,1.7h-0.3l0.2,0.2
					c0.2,0.3,0.3,0.6,0.2,1c0,0.1,0,0.2,0,0.3c0.1,0.1,0.2,0.1,0.4,0.1c0.9,0,2.7-0.7,3.7-1.9c1-1.1,1.5-2.1,1.9-3.2l-0.2,0.8
					c-0.8,2.9-1,4.7-0.9,7.7c0.1,2.3,0.7,4.1,1.3,5.8c0.6,1.6,1.2,3.2,1.3,5.4c0.1,1,0,1.8-0.1,2.5c-0.1,0.8-0.1,1.7,0,2.8
					c0.1,1.9,0.8,3.3,1.4,4.7c0.7,1.6,1.4,3.2,1.3,5.3c-0.1,1.8-0.6,2.9-1.1,4.1c-0.6,1.4-1.2,2.9-1.4,5.8v1.1l0.3-1
					c0.9-2.7,1.8-4.4,2.5-5.8c1.1-2.1,1.7-3.4,1.4-6.4C323.6,100.4,323.3,99.2,322.5,97.5 M327.1,98c0.3-0.1,0.4-0.1,0.6,0.1
					c0.1,0.1,0.2,0.4,0.2,0.5c-0.1,0.3-0.4,0.4-0.7,0.2C326.9,98.7,326.8,98.2,327.1,98 M330.7,96.1l0.5,0.3l-0.3-0.5
					c-0.4-0.8-1.2-1.3-2.1-1.3c-0.2,0-0.5,0-0.7,0.1c-1.1,0.3-1.7,1.1-1.8,2.2c-1,0-1.7,0.5-2.3,1.3c-0.7,1.1-0.6,2.3,0.3,3.3
					l0.4,0.4l-0.1-0.6c-0.2-0.9,0-1.6,0.5-2.3c0.3-0.4,0.6-0.6,1.1-0.8c-0.1,0.5,0.2,0.9,0.6,1.2c0.4,0.3,0.9,0.2,1.3-0.1
					c0.5-0.4,0.6-1,0.2-1.7c-0.2-0.3-0.4-0.5-0.7-0.7c0.2-0.5,0.5-0.8,0.9-1C329.3,95.6,330,95.6,330.7,96.1 M392.2,137.6
					c0,0,0-1.2-0.6-1.2c-4.7,0.2-8.5,0.3-11.5,0.3h-1.7c-0.4,0-1,0-1.4,0.7c-4.1,8.4-13.2,27.8-17.2,37.8
					c-2.4-6.1-11.5-27.4-16-37.9c-0.3-0.5-0.7-0.6-1.1-0.6c-2.7,0.2-4.6,0.2-6.6,0.2c-2.3,0-4.8-0.1-8.3-0.4c-0.6,0-0.6,1.1-0.6,1.5
					c0,0.7,0.2,1.1,0.5,1.1c7.4,0,8.5,3.4,8.5,5.4c-0.1,1.7-0.3,5.5-0.5,9.9c-0.4,8-1,17.9-1,22.3c0,6.6-2.3,8-7,8.6
					c-0.4,0-0.6,0.4-0.6,1.1c0,0.7,0.2,1.1,0.6,1.1c3.6-0.2,6.1-0.3,8.4-0.3c2.5,0,4.6,0.2,7.9,0.4l0,0c0.5,0,0.6-0.8,0.6-1.2
					c0-0.7-0.2-1.1-0.5-1.1c-5.8-0.6-6.3-2.7-6.3-5.8c0-2.9,0.3-13.6,0.6-22.2c0.1-4.5,0.3-8.6,0.3-10.4
					c4.8,7.7,16.4,35.9,17.4,38.9c0.3,0.8,0.8,1.2,1.3,1.2c0.6,0,1.1-0.5,1.3-1.3c0.6-2.2,13.1-32.1,17.9-40.5
					c0.1-0.2,0.4-0.6,0.5-0.8c0,0.1,0.1,0.3,0.1,0.5c0,0.9-0.1,3.1-0.2,6c-0.3,6.4-0.8,17-0.8,27.3c0,5.4-2.5,6.6-7,7.1h-0.1
					c-0.3,0.1-0.4,0.7-0.4,1.1c0,0.5,0.2,1.1,0.6,1.1c3.5-0.2,6.9-0.3,10.5-0.3s7,0.1,10.5,0.4c0.5,0,0.7-0.7,0.7-1.2
					s-0.2-1.1-0.5-1.1c-6-0.7-6.3-2.9-6.3-6.5c0-2.4,0.1-12.6,0.2-20.8c0.1-6,0.1-11.2,0.1-12.1c0-5.2,2.2-6.4,7-7.1
					C392.1,139,392.2,137.9,392.2,137.6 M440.4,174.1c0,7.3-3.7,10.9-11.1,10.9c-4.6,0-6.9-1.8-6.9-5.3s0-6.9,0-10.2
					c0-2.9,0-5.7,0-8.3C435.7,161.6,440.4,165,440.4,174.1 M425.3,158.7c-0.6,0-1.9,0-2.8-0.1c0-10.8,0.3-16.6,0.4-18.4
					c1.1-0.3,2.8-0.4,4.3-0.4c6.2,0,9.6,3.1,9.6,8.9C436.8,154,435.4,158.7,425.3,158.7 M434.1,159.9c7.5-1.6,11.6-5.7,11.6-11.5
					c0-5.1-3.2-11.1-18.2-11.1c-8,0-14-0.1-18.9-0.6c-0.6,0-0.6,1.1-0.6,1.5c0,0.8,0.2,1.1,0.5,1.1c4.5,0,6.5,1.7,6.5,5.7
					c0,2.1,0,6.8,0.1,12.2c0.1,7.5,0.1,16,0.1,21.1c0,4.8-2.3,6.7-8.4,7c-0.4,0-0.6,0.4-0.6,1.1c0,0.7,0.2,1.1,0.6,1.1l0,0l0,0
					c4.1-0.2,7.8-0.3,10.3-0.3c2.9,0,5.3,0.1,7.5,0.1c1.7,0,3.4,0.1,5.1,0.1c8.4,0,19.6-1.4,19.6-13.3
					C449.1,166.5,441.8,161.6,434.1,159.9 M507.1,173.4c0-0.3-0.2-0.8-1.4-0.8c-0.8,0-1.6,0.4-1.7,1.2c-0.7,7.1-3.4,11-16,11
					c-6.4,0-7.6-1.7-7.6-4.6c0-0.5,0-1.4,0-2.5c0-1.9,0.1-4.5,0.1-7.1c0-0.9,0-2,0-3c0-2.1,0-4.4,0-6.5c9.9,0.1,10.8,3.5,10.8,6.9
					c0,0.6,0.9,0.9,1.7,0.9c0.7,0,1.3-0.3,1.3-0.8c0-0.3,0-0.8-0.1-1.5c-0.1-1.5-0.2-4-0.2-7c0-4.2,0.1-6.1,0.2-7.1
					c0-0.4,0-0.6,0-0.8c0-0.6-0.6-1.1-1.5-1.1s-1.5,0.4-1.5,1c0,3.9-0.8,6.9-10.7,7c0.5-8.2,0.6-16.8,0.6-19.2
					c2.2-0.2,4.4-0.3,6.5-0.3c9.5,0,10.8,2,12.4,8.2c0.1,0.2,0.2,0.6,0.9,0.6c0.7,0,1.5-0.2,1.5-0.8c0-1.1,0.1-3,0.2-5
					s0.2-3.8,0.2-4.8s-0.4-1.5-1.3-1.5c-0.3,0-1.5,0.1-3.2,0.2c-4,0.2-10.7,0.6-15.3,0.6h-7.4c-3,0-6.3,0-9.8-0.3
					c-0.5,0-0.7,0.8-0.7,1.4c0,0.4,0.1,1.2,0.6,1.2c4.2,0,6.9,2.2,6.9,5.7c0,2.1,0,7,0.1,12.8c0.1,7.6,0.1,16.3,0.1,21
					c0,5.6-4.7,6.8-8.6,6.8c-0.6,0-0.6,0.9-0.6,1.4c0,0.7,0.2,1.1,0.6,1.1c0.5,0,1.7,0,3.2-0.1c2.4-0.1,5.3-0.2,7.1-0.2
					c2.9,0,10.5-0.1,17.2-0.1c5.7,0,11.1-0.1,12.8-0.1c1.5,0,2-0.2,2-2.2c0-2.1,0.1-4.7,0.2-7C507,176.1,507.1,174.5,507.1,173.4"/>
				<g>
					<g>
						<path class="st0" d="M420.9,215.6c-0.6,0.1-1.1,0.1-1.6,0c-0.2-0.1-0.7-0.1-1-0.1c-0.2,0-0.4,0-0.7,0c-0.2,0-0.6,0-0.7,0
							s-0.2,0-0.3,0c-0.4,0-1.4-0.1-2.2-0.2h-0.3c-0.3,0-0.5,0-0.6-0.1h-0.2c-0.3-0.1-0.6-0.2-0.8-0.2c-0.4,0-1,0.1-1.3,0.1
							c-0.4,0-1,0-1.4-0.1c-0.3,0-0.9-0.2-1.3-0.2c-0.3-0.1-0.8-0.1-1.1-0.2l-2.4-0.1c-0.3,0-0.7,0.1-0.9,0.2
							c-0.4,0.1-0.9,0.3-1.2,0.4c-0.3,0.1-0.7,0.3-1,0.4c-0.3,0.2-0.7,0.4-1,0.6c-0.1,0-0.2,0.3-0.1,0.3c0,0.2,0.1,0.7,0.2,0.9
							l0.1,0.1c0.2,0.2,0.3,0.5,0.4,0.9c0,0.2,0.1,0.7,0.3,0.9c0.1,0.2,0.2,0.5,0.3,0.8c0.1,0.2,0.1,0.4,0.1,0.5
							c0.1,0.3,0.2,0.8,0.2,1.2c0.1,0.5,0.1,1.2-0.1,1.7c-0.2,0.4-0.4,0.9-0.6,1.2c-0.1,0.2-0.3,0.4-0.6,0.5
							c-0.5,0.2-1.1,0.4-1.5,0.4h-0.3c-0.3,0-0.6,0.1-0.9,0.1c-0.2,0-0.6,0.2-0.8,0.3c-0.3,0.2-0.7,0.5-1,0.7
							c-0.3,0.3-0.9,0.5-1.3,0.7c-0.3,0.1-0.7,0.3-1,0.5c-0.2,0.1-0.6,0.4-0.7,0.6c-0.2,0.3-1.2,1.2-1.4,1.5
							c-0.2,0.2-0.5,0.6-0.7,0.8c-0.2,0.3-0.5,0.8-0.7,1.1c-0.2,0.2-0.4,0.7-0.4,0.9c-0.1,0.4-0.4,1-0.7,1.4
							c-0.2,0.2-0.4,0.6-0.4,0.9c-0.1,0.3-0.3,0.9-0.4,1.3c-0.1,0.3-0.3,0.8-0.4,1.1c0,0.1,0,0.4,0.1,0.5c0.1,0.2,0.4,0.4,0.6,0.5
							c0.3,0.1,0.9,0.4,1.2,0.6c0.3,0.1,0.7,0.3,1,0.3c0.3,0.1,0.7,0.1,1,0.1l0.1,0.3v-0.3c0.3,0,0.7-0.1,0.9-0.2
							c0.4-0.2,0.9-0.4,1.3-0.5s1.1-0.2,1.5-0.1h0.1c0.3,0,0.6-0.1,0.8-0.1c0.1-0.1,0.4-0.3,0.4-0.4c0.1-0.3,0.4-0.9,0.6-1.2
							c0.2-0.4,0.7-0.9,1-1.2c0.2-0.1,0.5-0.5,0.5-0.7c0.2-0.4,0.5-0.9,0.7-1.2c0.2-0.2,0.5-0.7,0.6-1c0.2-0.3,0.4-0.7,0.5-1
							c0.1-0.4,0.4-0.9,0.7-1.3c0.2-0.2,0.4-0.6,0.5-0.9c0.1-0.3,0.4-0.9,0.5-1.2c0.2-0.4,0.5-0.9,0.7-1.2c0.2-0.2,0.4-0.6,0.5-0.9
							c0.1-0.4,0.3-0.9,0.5-1.2c0.1-0.2,0.2-0.7,0.2-0.9c0-0.4,0.1-1,0.2-1.4c0.1-0.2,0.1-0.6,0-0.8c-0.1-0.4-0.1-1-0.1-1.4
							c0,0-0.1-0.2-0.1-0.3l-0.1-0.2c0-0.1-0.1-0.2-0.1-0.3s-0.1-0.3-0.2-0.4v-0.1c-0.1-0.2-0.2-0.3-0.2-0.5v-0.1
							c-0.1-0.2-0.2-0.3-0.2-0.5c-0.1-0.4-0.1-0.8,0.1-1.1s0.5-0.5,0.9-0.5h0.2c0.3,0,0.7,0.1,1,0.1h0.3c0.4,0,0.9,0,1.2,0.1
							c0.2,0.1,0.6,0.1,0.9,0s0.8-0.1,1.2-0.1h0.3c0.4,0,0.9,0,1.3,0.2c0.1,0,0.3,0.1,0.4,0.1c0.2,0,0.4,0,0.6,0.1c0,0,0.1,0,0.4,0
							h0.6c0.2,0,0.3,0,0.4,0s0.4,0,0.6,0c0.5,0,0.7,0,0.8,0h0.2h0.1c0.1,0,0.2,0,0.3,0c0.3,0,0.9-0.1,1.3-0.1c0.1,0,0.3,0,0.4-0.1
							l0.6-0.1c0.4,0,1-0.1,1.3-0.1s0.8-0.1,1.1-0.1c0.2,0,0.5,0,0.9,0h0.1c0.2,0,0.5,0,0.6,0h0.1h0.1c0.3,0,0.4,0,0.6,0
							c0.4,0,1-0.1,1.3-0.1h0.2c0.3,0,0.8,0,1.1,0c0.4,0,1.1,0,1.5,0.1c0.3,0.1,0.9,0.2,1.2,0.2c0.3,0,0.9,0.1,1.3,0.1s1,0,1.3-0.1
							c0.2,0,0.7-0.3,0.9-0.6c0.1-0.1,0.1-0.2,0.1-0.2c-0.1-0.1-0.4-0.4-0.6-0.4c-0.3-0.1-0.7-0.3-1-0.4h-0.1
							c-0.2-0.1-0.7-0.2-1-0.2c-0.2,0-0.7,0-0.9,0c-0.4,0.1-1,0.1-1.4,0.1c-0.3,0-0.9,0-1.2-0.1h-0.1c-0.3,0-0.7,0-0.9,0.1
							c-0.4,0.1-0.9,0.1-1.2,0.1H423c-0.2,0-0.5,0-0.6,0c-0.2,0-0.4,0-0.7,0C421.2,215.6,420.9,215.6,420.9,215.6 M400,229l-0.1,0.2
							c-0.1,0.4-0.4,1-0.7,1.3c-0.2,0.3-0.6,0.7-0.9,1c-0.2,0.2-0.4,0.5-0.4,0.7c-0.1,0.3-0.3,0.8-0.4,1.2s-0.4,0.9-0.6,1.2
							s-0.5,0.7-0.7,1c-0.1,0.2-0.4,0.6-0.4,0.9c-0.2,0.6-0.8,1.1-1.3,1.2c-0.3,0.1-0.9,0.2-1.2,0.2c-0.1,0-0.1,0-0.2,0
							c-0.4,0-0.9-0.1-1.3-0.3c-0.3-0.2-0.6-0.4-0.7-0.8c-0.1-0.3-0.1-0.7,0.1-1c0.1-0.3,0.4-0.7,0.5-1s0.3-0.8,0.4-1
							c0.2-0.5,0.6-1,1-1.3c0.2-0.2,0.5-0.5,0.6-0.6l0.7-1c0.2-0.3,0.7-0.8,1-1c0.2-0.1,1-0.9,1.3-1.2s0.8-0.7,1.2-0.8
							c0.3-0.1,0.9-0.3,1.2-0.4h0.6l0.3,0.3C400.4,228,400.2,228.5,400,229 M185.7,225.2c-0.3,0.2-0.8,0.5-1.1,0.6
							c-0.3,0.2-0.7,0.5-1,0.7s-0.7,0.6-0.9,0.8c-0.2,0.3-0.7,0.7-0.9,1c0,0.1-0.2,0.6-0.3,0.8c-0.2,0.6-0.3,1-0.5,1.2l-0.8,1.1
							c-0.2,0.3-0.6,0.8-0.9,1.1c-0.1,0.1-0.6,0.8-0.9,1.2l-0.4,0.6c-0.2,0.2-0.4,0.5-0.6,0.7l-0.1,0.1c-0.1,0.2-0.3,0.3-0.4,0.4
							l-1.6,1.9l0.4-2.5c0-0.4,0.1-0.9,0.2-1.3c0-0.1,0.1-0.5,0.2-0.8c0.1-0.3,0.3-1.3,0.3-1.4c0-0.2,0-0.6,0.1-0.9v-0.3
							c0-0.3,0.1-3.7,0.1-4.1c0-0.2,0-0.4,0.1-0.6c0-0.3,0.1-0.7,0-0.9c0-0.3,0-0.8,0-1.2c-0.3,0-0.8,0-1.1,0.1
							c-0.3,0-0.7,0.2-0.9,0.4s-0.6,0.6-0.8,0.9c-0.2,0.2-0.4,0.7-0.5,0.9c0,0.1,0,0.4,0.1,0.5c0.3,0.3,0.4,0.9,0.6,3
							c0,0.2,0,0.4,0.1,0.5c0.1,0.4,0.1,1.1,0,1.5c0,0.4-0.2,1.1-0.3,1.5c-0.1,0.2-0.3,1-0.4,1.6c-0.1,0.4-0.2,0.7-0.2,0.9
							c-0.1,0.4-0.2,0.9-0.3,1.3c-0.1,0.3-0.1,0.9-0.2,1.3c0,0.3,0,0.8,0.1,1.1c0,0.1,0.2,0.3,0.3,0.3c0.3,0.1,0.7,0.2,1,0.2h0.2
							c0.3,0,0.7,0,0.9-0.1c0.3,0,0.8-0.2,1.1-0.3c0.1,0,0.4-0.3,0.6-0.4c0.3-0.2,0.6-0.4,0.7-0.5c0.2-0.1,0.5-0.4,0.6-0.6
							c0.2-0.4,0.9-1.4,1.2-1.7c0.1-0.1,0.4-0.8,0.6-1c0.5-0.8,0.7-1.3,0.9-1.5l0.9-1.1c0.3-0.3,0.7-0.8,0.9-1.1
							c0.3-0.3,0.7-0.8,1-1.1l1-1c0.3-0.3,0.8-0.7,1.1-1l1.1-0.9c0.3-0.3,0.9-0.6,1.2-0.9l0.2-0.1h0.2c0.4-0.1,1.2-0.2,1.6-0.4
							l1-0.2c0.2,0,0.3,0,0.4,0c0.1,0,0.1,0,0.2,0c0.1,0,0.3,0,0.4,0c0.1,0,0.3,0,0.5,0c0.1,0,0.2,0,0.5,0.1c0.3,0,0.9,0.1,1.5,0.2
							l1.8,0.2l-1.5,1.3c-0.3,0.3-0.8,0.7-1,1.1c-0.3,0.4-0.8,0.9-1.1,1.2s-0.7,0.9-0.9,1.2c-0.3,0.4-0.7,1-0.9,1.3
							c-0.2,0.4-0.6,1-0.8,1.3c-0.2,0.4-0.5,1-0.7,1.4c-0.1,0.2-0.1,0.5-0.1,0.6c0.1,0.2,0.4,0.5,0.5,0.7c0.2,0.2,0.6,0.6,0.8,0.8
							s0.5,0.4,0.7,0.5s0.6,0.3,0.9,0.3c0.3,0.1,0.8,0.2,1.1,0.3c0.2,0.1,0.6,0.1,0.8,0.1s0.9-0.1,1.3-0.2l0.6-0.1
							c0.3-0.1,0.8-0.2,1.1-0.4c0.4-0.2,0.9-0.4,1.3-0.6c0.3-0.2,0.8-0.5,1.1-0.7s0.7-0.7,0.9-1c0.3-0.4,0.6-1,0.8-1.4
							s0.5-1.1,0.7-1.5c0.1-0.2,0.2-0.4,0.3-0.6c0.1-0.2,0.3-0.4,0.3-0.6c0.1-0.3,0.3-0.6,0.5-0.9c0.1-0.2,0.3-0.4,0.3-0.5
							c0.1-0.4,0.2-1,0.2-1.4c0,0,0-0.1-0.2-0.3c-0.1-0.1-0.1-0.1-0.1-0.2c0,0-0.1-0.2-0.8-0.5c-0.2-0.1-0.4-0.3-0.5-0.5l-0.4-0.9
							l1-0.1c0.3,0,0.6,0,0.8,0c0,0,0.1,0,0.2,0c0.3,0,0.6-0.1,0.9-0.1h0.4c0.2,0,0.5,0,0.7,0s0.2,0,0.2,0c0.2,0,0.3-0.1,0.6-0.1
							h0.6c0.2,0,0.2,0,0.2,0c0.2-0.1,0.6-0.1,1,0c0.2,0,0.3,0,0.4,0l1.1-0.1l0,0c0.2,0,0.2,0,0.3,0h0.5l0.2,0.2
							c0.5,0.4,0.5,1.3,0,1.8c0,0.1-0.2,0.9-0.3,1.2v0.1c-0.1,0.6-0.2,0.9-0.3,1.1c-0.1,0.3-0.3,0.8-0.4,1.1
							c-0.1,0.4-0.3,0.9-0.5,1.3c-0.1,0.3-0.3,0.8-0.4,1.1c-0.1,0.3-0.2,0.7-0.2,1s0,0.9-0.1,1.3c0,0.3-0.1,0.8-0.1,1.1
							c0,0.2,0.1,0.6,0.2,0.9c0.3,0,0.8-0.1,1.1-0.2c0.3-0.1,0.8-0.3,1.1-0.4c0.3-0.1,0.8-0.4,1.1-0.6c0.3-0.2,0.9-0.5,1.2-0.7
							c0,0,0.2-0.1,1.1-1c0.2-0.2,0.3-0.4,0.4-0.4c0.1-0.1,0.2-0.1,0.3-0.2l0.1-0.1c0.3-0.3,0.7-0.7,1-0.9c0.1-0.1,0.2-0.2,0.3-0.3
							l0.1-0.1c0.2-0.2,0.4-0.4,0.6-0.6c0,0,0.1-0.1,0.3-0.4c0.2-0.3,0.3-0.5,0.5-0.7l0.1-0.1c0.1-0.2,0.2-0.4,0.5-0.6
							c0.3-0.2,0.7-0.6,0.9-0.8c0.3-0.3,0.8-0.7,1.1-0.9l1.1-0.8c0.3-0.2,0.8-0.6,1.1-0.8c0.4-0.2,1-0.5,1.3-0.6
							c0.5-0.2,1,0,1.2,0.4c0.1,0.2,0.2,0.6-0.1,1.1c-0.2,0.2-0.4,0.7-0.6,1c-0.1,0.3-0.3,0.8-0.5,1.1c-0.1,0.4-0.4,0.9-0.6,1.3
							c-0.2,0.3-0.4,0.8-0.6,1.1c-0.1,0.3-0.3,0.8-0.3,1.1c0,0.2-0.1,0.4-0.2,0.5c0,0.1-0.1,0.2-0.1,0.3c-0.1,0.3-0.2,0.9-0.2,1.2
							s-0.1,0.7,0,1c0,0.4,0.1,0.9,0.1,1.2c0,0.1,0.1,0.2,0.1,0.2c0.2,0.1,0.7,0.2,1,0.2c0.4,0,1,0.1,1.4,0.2c0.3,0,0.8,0,1.1,0
							c0.4-0.1,1-0.2,1.4-0.2l1.8-0.3c0.3,0,0.7-0.1,0.9-0.1c0.3-0.1,0.9-0.2,1.2-0.3c0.2-0.1,0.5-0.2,0.8-0.3l0.5-0.2
							c0.3-0.1,0.8-0.4,1.1-0.6c0.4-0.3,1-0.6,1.4-0.8c0.2-0.1,0.6-0.4,0.8-0.6l0.5-0.6h-0.2h-0.3c-0.2,0-0.7,0.1-1,0.2
							c-0.4,0.2-1,0.3-1.4,0.4c-0.3,0-0.8,0.1-1.1,0.2c-0.3,0.1-0.8,0.3-1.2,0.4c-0.4,0.2-1,0.3-1.3,0.4c-0.3,0.1-0.9,0.2-1.3,0.2
							c-0.4,0-1.1,0-1.4,0c-0.4-0.1-1-0.3-1.3-0.4c-0.5-0.3-0.9-1-0.8-1.7c0-0.4,0.2-1,0.3-1.4c0.1-0.3,0.2-0.5,0.4-0.6
							c0.1-0.1,0.1-0.2,0.1-0.2c0.1-0.4,0.4-1,0.6-1.3l0.2-0.4c0.2-0.3,0.3-0.6,0.4-0.8c0.2-0.4,0.5-0.9,0.7-1.3
							c0.2-0.3,0.5-0.9,0.7-1.2s0.5-0.9,0.7-1.2c0.1-0.3,0.3-0.8,0.3-1c0-0.3,0.1-0.8,0.1-1.2h-0.1c-0.3,0-0.7,0-0.9,0.1
							c-0.3,0-0.9,0.1-1.2,0.2c-0.4,0.1-0.9,0.2-1.3,0.3c-0.3,0.1-0.9,0.3-1.2,0.4l-1.2,0.5c-0.3,0.1-0.8,0.4-1,0.6
							c-0.3,0.2-0.9,0.6-1.2,0.8s-0.9,0.5-1.2,0.7s-0.8,0.5-1.1,0.7s-0.8,0.6-1,0.8c-0.3,0.3-0.8,0.7-1.1,0.9s-0.8,0.6-1.1,0.8
							c0,0-0.1,0.1-0.5,0.6s-0.7,0.8-1,1c0,0-0.2,0.2-0.3,0.3c-0.2,0.3-0.5,0.6-0.8,0.7l-0.2,0.1c-0.1,0.1-0.3,0.1-0.5,0.1H212
							l-0.2-0.3c-0.3-0.4-0.1-0.7-0.1-0.9l0.2-0.5c0.1-0.2,0.2-0.5,0.2-0.7c0.1-0.4,0.4-1,0.6-1.4c0-0.1,0.1-0.6,0.2-0.9v-0.2
							c0.2-0.9,0.3-1.3,0.5-1.6s0.4-0.7,0.5-1s0.3-0.9,0.3-1.2c0.1-0.2,0.1-0.7,0.2-1c-0.4,0-0.9,0.1-1.2,0.2c-0.1,0-0.2,0-0.3,0.1
							c-0.9,0.1-2.6,0.2-2.9,0.2h-1c-0.5,0-1.4,0-2,0c-0.5,0.1-1.2,0-2.1,0h0.1l-1-0.1l-1.3-0.2c-0.1,0-0.1,0-0.2,0
							c-0.3,0-0.8,0-1.1,0s-0.8,0.1-1.1,0.2c-0.1,0-0.3,0.1-0.5,0.1c-0.8,0.1-1.2,0.2-1.4,0.2h-0.2c0,0,0,0-0.1,0
							c-0.4,0.1-0.5,0.1-0.8,0.1h-0.2c0,0-0.1,0-0.3,0.1h-0.1c-0.3,0.1-0.6,0.1-0.7,0.1h-0.1h-0.2h-0.6c-0.1,0-0.2,0-0.2,0h-0.1
							c-0.2,0-0.5,0-0.6,0s-0.2,0-0.3,0.1h-0.1c0,0,0,0-0.4,0s-1.1,0-1.3-0.1H192c-0.1,0-0.2-0.1-0.3-0.1c-0.7,0-2.1,0-2.5,0
							c-0.2,0-0.4,0-0.6,0c-0.3,0-0.9,0.1-1.3,0.1c-0.3,0-0.8,0.1-1.1,0.2C186.5,224.8,186,225,185.7,225.2 M197.1,228
							c0.3-0.2,0.6-0.4,1-0.6c0.2-0.1,0.4-0.2,0.6-0.3c0.3-0.2,0.7-0.4,0.9-0.4h0.1l0.4,0.1l0.2,0.3c0.1,0.2,0.6,1,0.7,1.5
							c0.1,0.4,0.1,1.1,0,1.6c-0.1,0.4-0.2,0.6-0.3,0.8c-0.1,0.1-0.1,0.2-0.2,0.3c-0.1,0.3-0.3,0.7-0.5,1l-0.4-0.1l0.3,0.2
							c-0.1,0.2-0.2,0.4-0.3,0.5c-0.1,0.3-0.4,0.6-0.6,0.8c-0.1,0.1-0.3,0.3-0.3,0.4c-0.3,0.6-0.8,1.1-1.3,1.2c0,0-0.1,0.1-0.2,0.2
							c-0.2,0.2-0.4,0.4-0.7,0.5c-0.2,0.1-1.3,0.4-1.9,0.4h-0.1c-0.4-0.1-0.9-0.3-1.3-0.5c-0.2-0.2-0.5-0.3-0.7-0.7
							c-0.4-0.6-0.2-1.4,0.1-2c0.3-0.4,0.7-1.1,1-1.5s0.8-1,1.2-1.3c0.1-0.1,0.2-0.3,0.4-0.5c0.3-0.4,0.5-0.7,0.7-0.9L197.1,228z
							 M128.8,212.5h-0.3c-0.3,0-0.9-0.1-1.2-0.2c-0.3,0-0.9-0.1-1.2-0.1c-0.4,0-0.9,0-1.3-0.1c-0.3,0-0.9-0.1-1.2-0.1h-0.2
							c-0.3,0-0.7,0-1,0c-0.4,0-1,0-1.4,0c-0.3,0-0.8,0-1.2,0c-0.3,0-0.9,0.1-1.2,0.2c-0.4,0.1-1.1,0.1-1.5,0.1
							c-0.3,0-0.7,0.1-0.9,0.2c-0.4,0.2-1,0.4-1.5,0.5c-0.4,0.1-1,0.2-1.4,0.2c-0.3,0-0.7,0.2-0.9,0.4c-0.4,0.3-1,0.6-1.3,0.8
							c-0.3,0.1-0.8,0.4-1.1,0.6c-0.3,0.2-0.7,0.5-0.9,0.7c-0.2,0.2-0.6,0.7-0.7,1c-0.2,0.3-0.5,0.9-0.6,1.2s-0.3,0.8-0.4,1.2
							s-0.3,1-0.4,1.4c-0.1,0.3-0.3,0.9-0.3,1.3c-0.1,0.3-0.1,0.9-0.1,1.2s0.2,0.7,0.3,0.9c0,0,0.2,0.1,0.3,0.1
							c0.3-0.1,0.7-0.3,0.8-0.4c0.2-0.2,0.5-0.6,0.7-0.9c0.2-0.3,0.5-0.8,0.7-1.2c0.2-0.3,0.4-0.8,0.5-1.1s0.2-0.8,0.2-1.1
							c0-0.4,0.2-1.1,0.4-1.5c0.2-0.4,0.5-1,0.7-1.3c0.3-0.4,0.8-0.9,1.2-1.2c0.4-0.2,0.9-0.5,1.3-0.6s1-0.3,1.4-0.4
							c0.4-0.1,1-0.2,1.4-0.3s1-0.1,1.3-0.1s0.9-0.1,1.2-0.2c0.4-0.1,1.1-0.2,1.6-0.2c0.3,0,0.8,0,1.1,0h0.8h1.2l0,0
							c0.3,0,0.5,0,0.7,0c0.5,0,1.1,0,1.4,0.1s0.9,0.2,1.3,0.2c0.4,0.1,1,0.3,1.3,0.4c0.3,0.1,0.3,0.1,0.4,0.2l0.2,0.1
							c0.2,0.1,0.4,0.3,0.5,0.6c0.2,0.6-0.1,1.3-0.3,1.6c-0.2,0.4-0.5,0.9-0.7,1.3l-1.2,2.3c-0.1,0.2-0.3,0.6-0.4,0.8l-0.1,0.3
							c-0.1,0.1-0.1,0.3-0.2,0.4c-0.1,0.3-0.2,0.6-0.3,0.8c0,0.1-0.1,0.2-0.1,0.3c-0.1,0.3-0.2,0.7-0.5,1c-0.1,0.1-0.3,0.5-0.5,1
							s-0.4,1.1-0.7,1.4c-0.1,0.1-0.1,0.3-0.2,0.4c-0.1,0.2-0.2,0.5-0.3,0.7c-0.3,0.4-0.7,0.9-1,1.2c-0.2,0.2-0.4,0.6-0.5,0.8
							c-0.1,0.5-0.5,1.2-0.9,1.5c-0.2,0.2-0.5,0.7-0.6,1c-0.1,0.4-0.4,1.1-0.6,1.4c-0.2,0.3-0.5,0.9-0.6,1.2c-0.2,0.4-0.6,1-0.9,1.3
							c-0.4,0.5-1,0.8-1.6,0.8c-0.2,0-0.5,0-0.8,0H116c-0.3,0-0.8,0.1-1.2,0.1c-0.4,0.1-1.1,0.1-1.5,0c-0.1,0-0.1,0-0.2,0
							c-0.2,0-0.5,0-0.7,0.1s-0.7,0.4-0.8,0.6c-0.2,0.2-0.5,0.6-0.6,0.9c-0.1,0.1-0.1,0.4-0.2,0.6c0.3-0.1,0.7-0.1,1-0.2
							c0.4-0.1,0.9-0.2,1.3-0.3s1-0.2,1.4-0.2c0.5,0,1.1,0.1,1.5,0.1c0.3,0,0.8,0,1.1,0c0.4-0.1,1-0.2,1.4-0.2
							c0.3-0.1,0.9-0.1,1.3-0.1h0.2c0.4,0,1,0.1,1.4,0.1c0.3,0,0.9,0.1,1.2,0.1c0.4,0,1,0,1.3,0c0.4,0,1,0,1.3,0.1
							c0.3,0,0.9,0,1.2,0c0.4-0.1,1-0.1,1.4-0.1s1,0,1.3,0s0.6,0,1,0h0.4c0.3,0,0.7,0,1,0h0.3c0.3,0,0.9-0.1,1.2-0.2
							c0.4-0.1,1.1-0.2,1.6-0.1c0.1,0,0.1,0,0.2,0c0.3,0,0.7,0,0.9-0.1c0.4-0.1,1-0.2,1.4-0.2s0.9-0.1,1.3-0.2
							c0.3-0.1,0.9-0.2,1.3-0.3c0.3-0.1,0.8-0.3,1.1-0.5c0.4-0.2,1-0.5,1.4-0.6c0.3-0.1,0.8-0.3,1.2-0.5c0.3-0.1,0.7-0.5,0.9-0.7
							c0.3-0.3,0.8-0.8,1.1-1.1c0.3-0.2,0.7-0.6,0.8-0.8s0.3-0.5,0.3-0.7l0.2-1.2c0-0.3,0.1-0.8,0.1-1.1s-0.1-0.8-0.2-1.1
							c-0.1-0.3-0.3-0.9-0.4-1.2c-0.1-0.3-0.3-0.8-0.5-1c-0.2-0.3-0.5-0.8-0.7-1c-0.2-0.3-0.5-0.7-0.8-1c-0.2-0.3-0.6-0.8-0.8-1.1
							c-0.1-0.2-0.5-0.5-0.7-0.6c-0.4-0.3-0.9-0.7-1.2-1.1c-0.2-0.2-0.5-0.6-0.7-0.8c-0.3-0.3-0.8-0.7-1-1l-0.4-0.6
							c-0.1-0.2-0.3-0.3-0.4-0.5l-0.8-1c-0.2-0.3-0.6-0.8-0.8-1.1s-0.5-0.7-0.7-1c-0.3-0.3-0.4-0.7-0.3-1.1c0-0.4,0.3-0.7,0.6-1
							c0.1-0.1,0.3-0.3,0.3-0.6l0,0c-0.5,0-1-0.1-1.4-0.2c-0.2-0.1-0.7-0.1-0.9-0.1c-0.5,0.1-1.2-0.1-1.6-0.2
							c-0.3-0.1-0.8-0.3-1-0.3c-0.2-0.1-0.7-0.1-1,0c-0.4,0.1-1.1,0.1-1.5,0C129.5,212.6,129.1,212.6,128.8,212.5 M129.4,221.1
							c0.1-0.4,0.2-0.7,0.4-0.9c0.1-0.1,0.2-0.3,0.2-0.4c0.1-0.2,0.2-0.4,0.3-0.6c0.1-0.2,0.3-0.4,0.4-0.6l0.1-0.2
							c0.1-0.1,0.2-0.2,0.2-0.3c0.2-0.4,0.8-0.6,1.5-0.6c0.5,0,0.9,0.1,1.1,0.3c0.3,0.2,0.7,0.7,1,1.2c0.1,0.2,0.4,0.6,0.6,0.8
							c0.2,0.2,0.6,0.5,0.8,0.6c0.4,0.2,0.9,0.6,1.2,0.9c0.2,0.2,0.5,0.5,0.7,0.6c0.5,0.2,1,0.7,1.2,1.1c0.2,0.3,0.5,0.7,0.7,0.9
							s0.5,0.5,0.8,0.6c0.4,0.2,0.9,0.7,1.1,1c0.2,0.3,0.5,0.8,0.7,1.1s0.5,0.9,0.6,1.2s0.4,0.9,0.5,1.2c0.2,0.4,0.3,1,0.4,1.4
							c0.1,0.5,0,1.2-0.1,1.7c-0.1,0.4-0.4,1-0.6,1.4c-0.2,0.4-0.7,1-1.1,1.3c-0.3,0.3-0.8,0.6-1.2,0.8c-0.3,0.2-0.9,0.5-1.3,0.7
							c-0.4,0.2-1.1,0.3-1.5,0.3h-0.2c-0.2,0-0.7,0.1-0.9,0.2c-0.4,0.2-1.1,0.3-1.6,0.3c-0.4,0-1-0.1-1.5-0.2c-0.2-0.1-0.8-0.1-1,0
							c-0.4,0.1-1.1,0.1-1.6,0l-1.2-0.2c-0.3,0-0.8-0.1-1.1,0c-0.4,0-1.1,0-1.5,0c-0.3-0.1-0.9-0.1-1.2-0.1c-0.4,0-0.8,0-1.1,0.1
							c-0.4,0.1-1.1,0.2-1.5,0.2s-0.8-0.2-1-0.5s-0.3-0.7-0.3-1.2c0.1-0.4,0.3-1.1,0.4-1.5s0.4-1.1,0.6-1.5c0.2-0.3,0.4-0.7,0.5-1.1
							l0.1-0.2c0.2-0.4,0.5-1,0.7-1.3l0.3-0.5c0.2-0.3,0.3-0.6,0.5-0.8c0.2-0.4,0.6-1,0.8-1.3c0.2-0.3,0.5-0.8,0.6-1.1
							c0.2-0.5,0.5-1.1,0.9-1.5c0.1-0.1,0.1-0.3,0.2-0.5c0.1-0.2,0.1-0.4,0.2-0.6c0.1-0.1,0.1-0.3,0.2-0.4c0.2-0.4,0.3-0.8,0.5-1
							C129.2,221.6,129.4,221.3,129.4,221.1 M150.6,231.5c-0.2,0.1-0.3,0.3-0.4,0.4c0,0,0.1,0.2,0.1,0.3c0.2,0.2,0.7,0.4,0.9,0.5
							c0.4,0.1,1,0.3,1.3,0.3c0.4,0.1,1,0.2,1.4,0.2s0.8,0.3,1,0.6s0.3,0.7,0.1,1.1c-0.1,0.3-0.1,0.7-0.1,1c0.1,0.3,0.2,0.8,0.3,1.1
							c0.1,0.2,0.3,0.6,0.5,0.7c0.2,0.2,0.6,0.5,0.9,0.6c0.2,0.2,0.7,0.4,1,0.4c0.3,0.1,0.8,0.2,1.1,0.2h0.1c0.3,0,0.8,0,1.1-0.1
							c0.3,0,0.8-0.2,1-0.4c0.3-0.2,0.8-0.6,1.1-0.8c-0.1-0.1-0.4-0.3-0.6-0.3c-0.4,0-1.2-0.1-1.6-0.2c-0.6-0.1-1.2-0.5-1.6-1
							c-0.4-0.5-0.5-1.4-0.2-2s0.9-1.2,1.6-1.3c0.3,0,0.9-0.2,1.3-0.4c0.4-0.2,1-0.4,1.4-0.5c0.1,0,0.2-0.1,0.4-0.2l0.3-0.1
							c0.4-0.2,1-0.4,1.2-0.5c0.3-0.2,0.9-0.5,1.2-0.7s0.8-0.6,1.1-0.9c0.3-0.2,0.7-0.7,0.9-1.1c0.2-0.3,0.5-0.8,0.7-1.2
							c0.1-0.3,0.2-0.8,0.2-1.1s-0.1-0.9-0.2-1.2c-0.1-0.3-0.3-0.7-0.5-1s-0.5-0.7-0.7-0.9c-0.1-0.1-0.4-0.2-0.6-0.2
							c-0.4,0-1,0.1-1.3,0.2c-0.5,0.1-1.7,0.5-2,0.6s-0.9,0.4-1.2,0.6c-0.3,0.2-0.8,0.6-1.1,0.9l-1.1,1.1c-0.3,0.3-0.7,0.8-0.9,1.1
							c-0.2,0.4-0.6,0.9-0.8,1.3l-0.8,1.3c-0.4,0.6-1.1,1.1-1.8,0.9c-0.4-0.1-0.9-0.2-1.3-0.2c-0.2,0-0.4,0-0.6,0
							c-0.2,0-0.4,0-0.5,0c-0.4,0-0.9,0.1-1.2,0.2C151.4,231.2,150.9,231.4,150.6,231.5 M157.9,232.7l1-1.8c0-0.1,0.4-0.7,0.6-1
							l0.2-0.3c0.5-0.7,1.3-1.7,1.7-2.2c0.5-0.5,2.3-1.7,3.3-1.7c0.1,0,0.3,0,0.4,0.1c0.2,0.1,0.6,0.2,0.8,0.7s0,0.9-0.2,1.3
							c-0.5,1-2.3,2.5-2.3,2.5c-0.5,0.4-1.6,0.9-2.4,1.2l-0.4,0.1c-0.4,0.2-1,0.4-1,0.4L157.9,232.7z M246.5,238.9
							c-0.1,0.2-0.3,0.7-0.3,1s0,0.9,0.1,1.2c0,0.1,0.1,0.2,0.2,0.2c0.2,0.1,0.7,0.1,0.9,0.1c0.3,0,0.8-0.1,1.1-0.1
							c0.2,0,0.6-0.2,0.8-0.3c0.3-0.2,0.9-0.5,1.3-0.6c0.2-0.1,0.6-0.2,0.7-0.4c0.2-0.2,0.5-0.5,0.7-0.8c0.3-0.5,1.1-0.8,1.7-0.7
							c0.3,0.1,0.9,0.1,1.2,0.1c0.4,0,1,0.1,1.4,0.2c0.2,0,0.7,0.1,1,0c0.4-0.1,1-0.1,1.5-0.1h0.1c0.1,0,0.2,0,0.4,0
							c0.4,0,0.9,0,1.2-0.1c0.4,0,1,0,1.4,0v-0.1h0.5h0.1c0.3,0,0.8,0,1.1-0.1c0.3-0.1,0.9-0.1,1.3-0.1h0.2c0.3,0,0.9,0,1.2,0h0.2
							c0.4,0,1,0.1,1.3,0.1c0.3,0.1,0.8,0.2,1.1,0.2c0.3,0,0.7,0,1,0h0.3c0.4,0,0.9,0,1.2,0.1c0.2,0,0.7,0,0.9-0.1
							c0.3-0.1,0.8-0.2,1.1-0.4c0.2-0.1,0.6-0.3,0.8-0.5c0.1-0.1,0.4-0.4,0.5-0.6c0.1-0.2,0.2-0.4,0.3-0.7c-0.3,0-0.5,0.1-0.7,0.1
							c-0.4,0.1-1,0.1-1.3,0.2c-0.3,0-1,0-1.5-0.1c-0.3,0-0.8-0.1-1.1,0c-0.3,0-0.8,0.1-1.1,0.2c-0.4,0.1-1,0.2-1.4,0.3
							c-0.3,0-0.9,0-1.3,0h-0.1c-0.4,0-1,0-1.4-0.1c-0.3,0-0.8,0-1.1,0.1c-0.4,0.1-1,0.1-1.4,0.1h-0.1h-0.1h-0.1c-0.4,0-0.9,0-1.2,0
							h-0.2h-0.2c-0.5,0-1.1,0-1.5-0.1c-0.3-0.1-0.2,0-0.5,0s-0.9-0.1-1.3-0.1s-1.1-0.1-1.5-0.3c-0.4-0.1-0.7-0.4-0.8-0.8
							c-0.1-0.4,0-0.8,0.3-1.1s0.7-0.7,1-1l0.3-0.2c0.3-0.2,0.6-0.4,0.8-0.6c0.2-0.2,0.6-0.5,0.7-0.8c0.2-0.3,0.5-0.8,0.6-1.1
							c0-0.1,0.1-0.2,0.1-0.2c0.1-0.3,0.2-0.6,0.5-0.8c0,0,0-0.1,0-0.2c0.1-0.3,0.1-0.7,0.4-0.9c0.2-0.2,0.4-0.7,0.5-0.9
							c0.3-0.7,1-1.1,1.7-1c0,0,0.1,0,0.2,0h0.1c0.3-0.1,0.7-0.2,1.1-0.1c0.2,0.1,0.7,0.1,1,0.1h0.2c0.4,0,0.9,0,1.3,0.1
							s0.9,0.1,1.3,0.2c0.2,0,1-0.1,1.3-0.2h0.1c0.7-0.1,1.1-0.2,1.3-0.2h0.3c0.3,0,0.6,0,0.8-0.1c0.3-0.1,0.9-0.1,1.3-0.2
							c0.2,0,0.5-0.2,0.7-0.3c0.2-0.2,0.6-0.6,0.7-0.8c0.1-0.1,0.1-0.2,0.2-0.4c-0.3,0-0.7,0.1-0.9,0.1c-0.4,0-0.9,0.1-1.3,0.1
							c-0.5,0.1-1.2,0-1.6,0c-0.2,0-0.7,0.1-1.2,0.1c-0.9,0.1-1.4,0.2-1.7,0.1c-0.4-0.1-1-0.2-1.4-0.3s-1-0.3-1.4-0.4
							c-0.3-0.1-0.9-0.3-1.2-0.4c-0.2,0-0.6,0-0.8-0.3c-0.2-0.2-0.2-0.5-0.1-0.8s0.2-0.8,0.3-1.2c0.1-0.4,0.4-1,0.7-1.4l0.1-0.1
							c0.2-0.3,0.5-0.6,0.6-0.9c0.2-0.2,0.4-0.7,0.5-1c0.1-0.4,0.4-0.9,0.6-1.2c0.3-0.5,1.1-0.9,1.7-0.7c0.2,0,0.7,0.1,1,0
							c0.4,0,1,0,1.4,0c0.3,0,0.8,0,1.1,0c0.4,0,0.9-0.1,1.3-0.1h0.2c0.4,0,0.9,0.1,1.3,0.2c0.2,0.1,0.7,0.1,0.9,0
							c0.3-0.1,0.9-0.1,1.3-0.2c0.4,0,0.9-0.1,1.3-0.1s0.9,0,1.3,0c0.3,0,0.8-0.1,1-0.1c0.2-0.1,0.6-0.2,0.9-0.3l0.3-0.1
							c0.3-0.1,0.7-0.3,0.8-0.4c0.3-0.3,0.9-0.5,1.3-0.7c0,0,0.1,0,0.1-0.1c-0.3,0-0.6,0-0.8,0c-0.4,0-1,0-1.4,0H280
							c-0.3,0-0.7,0.1-0.9,0.1c-0.4,0.2-1.2,0.2-1.7,0.1c-0.3,0-0.8-0.1-1.1,0c-0.2,0-0.6,0.1-0.8,0.1l-0.5,0.1
							c-0.4,0-1,0.1-1.4,0.1h-0.2c-0.4,0-0.8,0-1.1,0c-0.4,0-1-0.1-1.4-0.1s-1-0.1-1.3-0.2c-0.7-0.1-1.3-0.7-1.3-1.4
							c0-0.3-0.1-0.8-0.3-1c-0.1-0.1-0.2-0.2-0.3-0.2c-0.4,0-1,0-1.4,0c-0.1,0-0.3,0.1-0.4,0.2c-0.2,0.3-0.5,0.7-0.7,1
							s-0.5,0.8-0.7,1.1s-0.6,0.7-0.7,1c-0.2,0.3-0.5,0.7-0.7,1c-0.2,0.2-0.4,0.7-0.5,1c-0.1,0.4-0.4,0.9-0.6,1.3
							c-0.2,0.3-0.5,0.8-0.7,1.1c-0.2,0.2-0.4,0.7-0.5,1s-0.3,0.7-0.5,1.1v0.1c-0.2,0.3-0.4,0.8-0.5,1.1c-0.1,0.4-0.4,0.9-0.6,1.2
							s-0.4,0.8-0.6,1.1s-0.3,0.6-0.5,1c0,0-0.1,0.2-0.1,0.3c-0.1,0.4-0.2,0.8-0.4,1.1c-0.2,0.2-0.4,0.7-0.5,0.9
							c0,0.1-0.1,0.2-0.1,0.3c-0.1,0.3-0.2,0.5-0.4,0.8c-0.1,0.1-0.2,0.3-0.3,0.4l-0.1,0.2c-0.1,0.2-0.2,0.3-0.3,0.4
							c0,0.1-0.1,0.1-0.1,0.2c-0.2,0.3-0.4,0.7-0.7,0.9s-0.6,0.6-0.8,0.8c-0.2,0.3-0.6,0.7-0.9,0.9c-0.2,0.2-0.6,0.6-0.8,0.9
							c-0.3,0.4-1,0.7-1.5,0.8c-0.4,0.1-0.9,0.2-1.3,0.2c-0.3,0.1-0.8,0.2-1.1,0.3s-0.8,0.4-1.1,0.6c-0.2,0.1-0.5,0.4-0.6,0.6
							C246.9,238.1,246.6,238.6,246.5,238.9 M280.7,237.1c0,0.3-0.1,0.8-0.1,1.1s0.1,0.7,0.1,0.9c0.3,0,0.7-0.1,1-0.2
							c0.3-0.1,0.8-0.3,1.1-0.4c0.1-0.1,0.4-0.2,0.7-0.2c0.7-0.2,0.8-0.3,0.8-0.3c0.3-0.2,0.8-0.5,1.2-0.7c0.1-0.1,0.9-0.9,1.2-1.2
							l0.1-0.1c0.2-0.3,0.5-0.5,0.5-0.6c0.1-0.1,0.2-0.2,0.4-0.4c0.3-0.3,0.6-0.6,0.8-0.8c0.1-0.1,0.2-0.2,0.3-0.3l0.3,0.1l-0.3-0.2
							c0.2-0.2,0.3-0.4,0.5-0.6c0,0,0.1-0.1,0.3-0.4c0.2-0.3,0.3-0.5,0.5-0.7c0,0,0-0.1,0.1-0.1c0.1-0.2,0.2-0.4,0.5-0.6
							c0.3-0.2,0.7-0.6,0.9-0.8c0.3-0.3,0.7-0.7,1-0.9l1-0.8c0.3-0.2,0.8-0.6,1.1-0.8l0.2-0.1h0.2l0,0c0.3,0,0.6,0.1,0.7,0.4
							c0.3,0.4,0.1,0.8-0.2,1.4l-0.1,0.2c-0.1,0.4-0.3,0.8-0.4,1.1c-0.1,0.4-0.4,0.9-0.6,1.3c-0.1,0.3-0.4,0.8-0.5,1.1
							s-0.3,0.8-0.3,1c-0.1,0.3-0.1,0.4-0.2,0.5c0,0.1,0,0.1-0.1,0.2c-0.1,0.3-0.2,0.9-0.2,1.2s-0.1,0.8,0,1c0,0.3,0.1,0.9,0.1,1.2
							c0,0.1,0.1,0.2,0.1,0.2c0.2,0.1,0.6,0.2,0.9,0.2s0.9,0.1,1.3,0.2c0.2,0,0.7,0,1,0c0.3-0.1,0.9-0.2,1.3-0.2l1.3-0.2
							c0.2-0.1,1.3-0.7,1.5-0.9c0.1-0.1,0.4-0.3,0.7-0.6c0.3-0.2,0.5-0.3,0.6-0.5c0.2-0.2,0.4-0.3,0.6-0.4c0.1,0,0.2-0.1,0.2-0.2
							c0.1-0.2,0.3-0.5,0.5-0.8l1.7-2.1l-0.4,2.6c0,0.2-0.1,0.5-0.1,0.6c0,0.3-0.1,0.8-0.1,1.2c0,0.1,0,0.2,0,0.2v0.1
							c0,0.1,0.1,0.3,0.1,0.5c0.3,0,0.7,0.1,1,0.1s0.7-0.1,0.9-0.2c0.3-0.1,0.8-0.3,1.2-0.4c0.3-0.1,0.7-0.3,1-0.4
							c0.2-0.1,0.6-0.4,0.7-0.5c0.2-0.2,0.4-0.3,0.5-0.4c0.1-0.1,0.2-0.1,0.3-0.2l0.2-0.1c0.1-0.1,0.1-0.1,0.2-0.2
							c0.2-0.2,0.3-0.5,0.3-0.7c0-0.1,0-0.2,0-0.3s0-0.3,0-0.4h-0.1c-0.2,0.2-0.5,0.3-0.7,0.4c-0.1,0-0.1,0-0.2,0.1
							c-0.3,0.1-0.6,0.2-0.8,0.2c-0.1,0-0.2,0-0.2,0c-0.5,0.2-0.9,0-1.2-0.3c-0.1-0.2-0.3-0.5-0.1-1c0.1-0.4,0.4-1,0.6-1.3l0.6-1.1
							c0.2-0.3,0.6-0.8,0.8-1.1c0.2-0.3,0.7-0.7,1-1c0.3-0.2,0.7-0.6,1-0.8s0.8-0.6,1.2-0.7c0.3-0.2,0.9-0.4,1.2-0.6
							c0.3-0.1,0.9-0.4,1.2-0.5c0.3-0.1,0.8-0.3,1.2-0.5c0.2-0.1,0.4-0.1,0.5-0.1c0.3,0,0.6,0.2,0.8,0.5c0.1,0.2,0.2,0.6-0.2,1.1
							c-0.2,0.4-0.6,0.9-0.9,1.1c-0.2,0.2-0.5,0.6-0.6,0.9c-0.2,0.3-0.4,0.8-0.4,1.1c-0.1,0.4-0.4,0.9-0.5,1.3l-0.3,0.6
							c-0.1,0.2-0.2,0.5-0.3,0.6c-0.2,0.3-0.4,0.8-0.6,1.1c-0.1,0.2-1.1,2.6-1.2,3s-0.3,1-0.4,1.3s-0.3,0.9-0.4,1.2
							c-0.2,0.6-0.7,1.1-1.3,1.3c-0.3,0.1-0.8,0.3-1.1,0.4c-0.3,0.2-0.9,0.3-1.3,0.4c-0.3,0.1-0.7,0.2-0.9,0.4
							c-0.3,0.2-0.8,0.4-1.2,0.6c-0.3,0.1-0.8,0.3-1.1,0.5c-0.3,0.2-0.8,0.4-1.2,0.5c-0.3,0.1-0.7,0.3-1,0.5
							c-0.4,0.2-0.9,0.5-1.2,0.6c-0.3,0.1-0.9,0.3-1.2,0.5c-0.3,0.1-0.7,0.3-0.9,0.5c-0.3,0.2-0.7,0.5-0.9,0.7
							c-0.3,0.3-0.8,0.6-1.2,0.8c-0.3,0.1-0.8,0.4-1.1,0.6c-0.2,0.1-0.6,0.4-0.8,0.6c-0.3,0.3-0.7,0.7-1,0.9l-0.1,0.1
							c-0.3,0.2-0.6,0.5-0.9,0.7c-0.2,0.2-0.5,0.5-0.7,0.8s-0.6,0.8-0.8,1l-0.8,0.9c-0.2,0.2-0.5,0.6-0.7,0.9
							c-0.1,0.2-0.4,0.6-0.4,0.8c-0.1,0.3-0.2,0.8-0.3,1c0,0.2,0,0.6,0.1,0.8c0.1,0.2,0.3,0.5,0.4,0.6c0.2,0.2,0.6,0.5,0.9,0.7
							c0.2,0.2,0.7,0.4,0.9,0.5c0.3,0.1,0.8,0.3,1.1,0.4c0.3,0.1,0.7,0.2,1,0.2s0.9,0.1,1.3,0.1c0.1-0.1,0.3-0.1,0.6-0.1h0.1h0.1
							h0.2c0.5,0,0.8-0.1,1-0.1c0.9-0.2,2.3-0.9,3.1-1.4l0.1-0.1c0.1,0,0.1-0.1,0.1-0.1l0.1-0.1c0.1-0.1,0.3-0.2,0.4-0.2l0.2,0.3
							l-0.1-0.3c0.2-0.1,0.4-0.2,0.6-0.4l0.1-0.1c0.1-0.1,0.3-0.2,0.4-0.4l0.1-0.1c0.5-0.4,1.1-0.9,1.9-1.6c0.9-0.9,2-2.1,3.5-3.8
							c1-0.9,2.8-3.3,4-5.2c1-1.6,1.7-3.2,1.7-3.2l0.3-0.9l0.5,0.3l0,0c0.1,0,0.2-0.1,0.2-0.1h0.1c0.1-0.1,0.3-0.1,0.7-0.2
							c0.2-0.1,0.4-0.1,0.5-0.1c0.2,0,0.3-0.1,0.7-0.2c0.4-0.1,0.4-0.1,0.4-0.2l0.1-0.1c0,0,0.1-0.1,0.2-0.1
							c0.1-0.1,0.2-0.1,0.3-0.1c0.2-0.1,0.2-0.1,0.4-0.3c0.3-0.4,0.6-0.5,0.8-0.6l0,0c0.1-0.1,0.2-0.1,0.3-0.2h0.1
							c0.1-0.1,0.3-0.2,0.5-0.4c0.1-0.1,0.1-0.1,0.2-0.1c0.1-0.1,0.2-0.2,0.2-0.3c0.3-0.3,0.5-0.4,0.7-0.5l0,0c0-0.1,0-0.1,0-0.2
							c-0.2,0-0.3,0-0.4,0s-0.4,0.1-0.6,0.3c-0.4,0.1-0.7,0.2-0.8,0.3c-0.2,0.1-0.4,0.2-0.6,0.3c-0.1,0-0.3,0.1-0.4,0.1
							c-0.3,0.3-0.8,0.4-1.1,0.5c-0.1,0-0.1,0-0.2,0c-0.2,0.1-0.6,0.1-0.9,0.1l-1.5,0.7l0.4-1.6c0.1-0.3,0.3-0.9,0.4-1.2
							c0.1-0.2,0.2-0.7,0.2-1c0-0.5,1.1-3.1,1.4-3.5c0.2-0.2,0.5-0.7,0.7-1s0.5-0.8,0.6-1.1l0.1-0.2c0.2-0.3,0.4-0.7,0.6-0.9
							c0.2-0.3,0.5-0.8,0.6-1c0.1-0.3,0.4-0.8,0.5-1.1s0.3-0.8,0.3-1.1c-0.2-0.1-0.7-0.1-0.9-0.1c-0.3,0.1-0.8,0.2-1,0.3
							c-0.5,0.2-1,0.1-1.3-0.2c-0.2-0.2-0.3-0.6-0.3-1c0-0.2-0.1-0.5-0.2-0.6c-0.2-0.2-0.5-0.3-0.6-0.3h-0.1c-0.3,0-0.6,0-0.9,0.1
							s-0.8,0.2-1.1,0.2c-0.2,0.1-0.6,0.2-0.8,0.4c-0.3,0.2-0.8,0.5-1.2,0.7c-0.3,0.1-0.9,0.3-1.2,0.4c-0.1,0-0.4,0.2-0.5,0.4
							l-0.4,0.6c-0.1,0.1-0.2,0.1-0.3,0.2l-0.2,0.1c-0.4,0.3-0.9,0.7-1.5,1.1l-0.4,0.3c-0.8,0.6-1.4,1.1-1.9,1.7
							c-0.5,0.7-1.4,1.4-2,1.9c-0.2,0.1-0.3,0.2-0.4,0.3c-0.6,0.5-1.4,1.3-1.7,1.7c-0.3,0.4-0.8,0.7-1.2,0.9
							c-0.2,0.1-0.5,0.2-0.7,0.4c-1.4,0.9-1.7,1-1.9,1h-0.1c-0.1,0-0.3,0.1-0.6,0.1h-0.1h-0.1c-0.2-0.1-0.6-0.2-0.9-0.3
							c-0.5-0.3-0.8-1-0.7-1.7c0-0.4,0.2-1,0.3-1.4c0.1-0.3,0.2-0.5,0.3-0.6c0.1-0.1,0.1-0.1,0.1-0.2c0.1-0.4,0.4-1,0.6-1.3
							s0.4-0.8,0.6-1.1c0.2-0.4,0.5-1,0.7-1.3s0.5-0.9,0.6-1.2l0.6-1.2c0.1-0.2,0.3-0.7,0.3-1s0.1-0.8,0.1-1.2l0,0
							c-0.3,0-0.6,0-0.9,0.1c-0.3,0-0.8,0.1-1.1,0.2c-0.2,0-0.5,0.1-0.9,0.2h-0.1c-0.3,0-0.5,0.1-0.7,0.1c-0.3,0.1-0.8,0.3-1.1,0.4
							c-0.3,0.1-0.8,0.4-1.1,0.5c-0.3,0.1-0.7,0.4-0.9,0.6c-0.3,0.2-0.8,0.6-1.1,0.8c-0.2,0.1-0.6,0.3-0.9,0.5l-0.3,0.2
							c0,0,0,0,0,0.1c-0.1,0.1-0.2,0.4-0.4,0.6c-0.3,0.2-0.7,0.5-0.9,0.8c-0.3,0.3-0.7,0.7-1,0.9s-0.8,0.6-1,0.8
							c0,0-0.1,0.1-0.5,0.6s-0.7,0.8-0.9,1c0,0-0.1,0.2-0.2,0.2c-0.2,0.3-0.5,0.6-0.8,0.7l-0.2,0.1c-0.1,0.1-0.3,0.1-0.5,0.1h-0.4
							l-0.2-0.3c-0.2-0.3-0.1-0.7-0.1-0.9c0.1-0.2,0.1-0.4,0.2-0.7l0.2-0.5c0.1-0.4,0.4-1,0.6-1.3c0-0.1,0.2-0.7,0.2-1
							c0.2-1,0.3-1.4,0.4-1.6c0.1-0.2,0.3-0.7,0.4-1s0.2-0.9,0.3-1.2c0.1-0.2,0.1-0.7,0.2-1c-0.3,0-0.8,0.1-1.1,0.2l-1.3,0.3
							c-0.3,0.1-0.7,0.3-1,0.4c-0.2,0.1-0.6,0.5-0.8,0.8l0,0l0.5,0.5c0.5,0.5,0.5,1.3,0.1,1.9c0,0-0.1,0.2-0.3,1.3v0.2
							c-0.1,0.4-0.1,0.7-0.2,0.9c-0.1,0.3-0.3,0.8-0.4,1.1s-0.3,0.9-0.4,1.3c-0.1,0.3-0.3,0.8-0.4,1.1s-0.2,0.7-0.2,1
							C280.8,235.7,280.8,236.7,280.7,237.1 M312,242.3l-0.9,1.8c0,0,0,0.1-0.1,0.2c-0.1,0.3-0.5,0.9-0.6,1.3l-0.5,0.7
							c-0.7,0.9-1.6,2.1-1.9,2.5c-0.4,0.5-1.2,1.2-2.1,2.1c-0.8,0.8-1.7,1.7-2.3,2.2c-0.3,0.2-0.6,0.5-0.8,0.7
							c-0.2,0.2-0.4,0.4-0.5,0.5c-0.2,0.2-0.4,0.3-0.7,0.5l-0.1,0.1c-0.1,0.1-0.3,0.2-0.5,0.4c-0.8,0.5-3.4,1.9-4.1,2.2
							c-0.4,0.2-0.9,0.3-1.3,0.3c-0.2,0-0.3,0-0.4,0c-0.4,0-0.8-0.1-1.2-0.4l-0.1-0.1c-0.2-0.2-0.8-0.6-0.5-1.4
							c0.1-0.4,0.4-0.9,0.6-1.3c0.2-0.3,0.5-0.8,0.8-1.1c0.2-0.3,0.6-0.7,0.9-1c0.2-0.2,0.6-0.6,0.8-0.9c0.3-0.3,0.8-0.7,1.1-0.9
							c0.3-0.2,0.7-0.5,1-0.7s0.7-0.5,1-0.8s0.8-0.6,1.1-0.8c0.3-0.2,0.7-0.5,1-0.7s0.8-0.6,1.2-0.8c0.3-0.1,0.8-0.4,1.1-0.6
							c0.3-0.1,0.7-0.4,1-0.6c0.3-0.2,0.8-0.5,1.2-0.7c0.3-0.2,0.8-0.4,1.1-0.6l0.4-0.2c0.3-0.1,0.5-0.3,0.7-0.3L312,242.3z
							 M326.7,235.3c-0.1,0.3-0.1,0.9-0.1,1.2s0,0.8,0.1,1.1s0.2,0.9,0.3,1.2c0,0.1,0.2,0.4,0.3,0.4c0.2,0.1,0.7,0.3,0.9,0.4
							c0.2,0.1,0.7,0.1,1,0h0.3c0.4,0.1,0.6,0.1,0.9,0c1.2-0.2,3.2-0.6,3.6-0.8c0.5-0.2,1.1-0.4,1.7-0.6h0.1c0.4-0.1,0.9-0.2,1-0.3
							c0.2-0.1,0.4-0.2,0.6-0.4h0.1c0.4-0.3,0.9-0.6,1.2-0.8l0.3-0.2c0.2-0.2,0.3-0.3,0.5-0.4c0.2-0.2,0.6-0.5,1-0.8l1.7-1.3
							l-0.6,2.2c-0.1,0.4-0.2,0.9-0.2,1.2s0,0.8,0.1,1.1c0,0.1,0.2,0.2,0.2,0.3c0.3,0.1,0.8,0.2,1.1,0.2c0.4,0,0.8-0.1,1-0.1
							c0.3-0.1,0.9-0.3,1.1-0.4c0.3-0.1,0.8-0.4,1-0.6c0.3-0.2,0.7-0.5,1-0.7s0.7-0.6,0.9-0.9c0.3-0.3,0.6-0.7,0.8-0.9
							c0.3-0.4,0.6-0.4,0.9-0.4c0.4,0,0.8,0.2,1,0.9c0.1,0.3,0.2,0.8,0.4,1.1c0.1,0.3,0.4,0.8,0.6,1.1s0.5,0.7,0.7,1
							c0.1,0.1,0.3,0.2,0.4,0.2c0.4-0.1,0.9-0.2,1.2-0.2c0.3-0.1,0.8-0.2,1-0.4l0.1-0.1c0.3-0.1,0.5-0.2,0.5-0.2l0.6-0.4
							c0.3-0.2,0.5-0.3,0.7-0.3c0.1-0.1,0.2-0.2,0.4-0.3c0.1,0,0.2-0.1,0.4-0.1c0.2-0.1,0.4-0.1,0.5-0.2c0.1-0.1,0.4-0.2,0.7-0.4
							l0.1-0.1c0.1-0.1,0.2-0.1,0.2-0.1c0.2-0.1,0.4-0.3,0.6-0.4l0.2-0.1c0.1,0,0.1-0.1,0.2-0.1c0,0,0.2-0.2,0.4-0.3l0.1-0.1
							c0.2-0.2,0.5-0.4,0.7-0.6c0.3-0.3,0.6-0.6,0.9-1c0.1-0.1,0.2-0.3,0.3-0.4l0.1-0.1c0.1-0.2,0.3-0.3,0.4-0.5
							c0.2-0.4,0.4-0.7,0.6-0.9l2.6-4l-1.2,4.6c-0.1,0.4-0.3,1-0.5,1.3c-0.1,0.3-0.3,0.8-0.4,1.1s-0.2,0.7-0.2,1s0,0.9-0.1,1.3
							c0,0.3-0.1,0.8-0.1,1.1c0,0.2,0.1,0.6,0.2,0.8c0.3,0,0.8-0.1,1.1-0.2c0.3-0.1,0.8-0.3,1.1-0.4c0.3-0.1,0.7-0.4,1-0.6
							c0.3-0.2,0.8-0.5,1.2-0.7c0,0,0.2-0.2,0.4-0.6c0.3-0.4,0.4-0.6,0.6-0.8c0.1-0.1,0.2-0.2,0.3-0.3l0.1-0.1
							c0.3-0.3,0.6-0.6,0.8-0.7c0.1-0.1,0.3-0.3,0.3-0.4c0.2-0.2,0.4-0.4,0.6-0.6c0,0,0.2-0.2,0.2-0.3l0.1-0.1
							c0.2-0.2,0.3-0.5,0.5-0.6c0,0,0,0,0.1-0.1c0.1-0.2,0.2-0.4,0.5-0.6c0.2-0.2,0.7-0.6,0.9-0.8c0.3-0.3,0.8-0.7,1.1-0.9
							c0.1-0.1,0.3-0.2,0.4-0.3c0.2-0.2,0.4-0.4,0.6-0.5c0.3-0.2,0.8-0.5,1.1-0.7c0.4-0.3,1.3-0.5,1.4-0.6c0.1,0,0.3-0.1,0.4-0.1
							c0.3,0,0.6,0.2,0.8,0.5c0.1,0.2,0.2,0.6-0.1,1.1c-0.2,0.2-0.4,0.7-0.5,0.9c-0.1,0.3-0.3,0.8-0.4,1.1c-0.1,0.4-0.4,0.9-0.6,1.3
							c-0.2,0.3-0.4,0.7-0.5,1.1c-0.1,0.3-0.3,0.8-0.3,1s-0.1,0.4-0.2,0.5c0,0.1,0,0.1-0.1,0.2c-0.1,0.3-0.2,0.8-0.2,1.2
							c0,0.3-0.1,0.8,0,1c0,0.3,0.1,0.9,0.1,1.2l0.1,0.2c0.2,0.1,0.7,0.2,0.9,0.2c0.4,0,1,0.1,1.3,0.2c0.2,0,0.7,0,1,0
							c0.1,0,0.4-0.1,0.5-0.2l0.9-0.3c0.3-0.1,0.9-0.3,1.2-0.4c0.3-0.1,0.8-0.4,1-0.5c0.3-0.2,0.9-0.6,1.3-0.7
							c0.2-0.1,0.6-0.4,0.7-0.6c0,0,0.1-0.1,0.1-0.2c0-0.1,0.1-0.2,0.1-0.4h-0.2c-0.2,0-0.7,0.1-0.9,0.2c-0.4,0.2-1,0.3-1.4,0.4
							c-0.3,0-0.7,0.1-1,0.2c-0.3,0.1-0.8,0.3-1.1,0.4l-0.2,0.1h-0.2c-0.1,0-0.1,0-0.2,0h-0.1c-0.3,0-0.6,0-1-0.2
							c-0.5-0.3-0.9-1-0.8-1.7c0.1-0.4,0.2-1,0.3-1.4c0.1-0.3,0.2-0.5,0.4-0.6c0.1-0.1,0.1-0.1,0.1-0.2c0.1-0.3,0.4-0.9,0.6-1.3
							c0.2-0.3,0.5-0.9,0.7-1.2s0.5-0.9,0.7-1.2s0.5-0.8,0.7-1.1s0.5-0.8,0.6-1.2c0.2-0.3,0.3-0.8,0.3-1c0-0.3,0.1-0.8,0.1-1.1l0,0
							c-0.3,0-0.7,0-0.9,0.1c-0.3,0-0.9,0.1-1.2,0.2c-0.3,0.1-0.9,0.2-1.2,0.3c-0.3,0.1-0.8,0.2-1.1,0.4c-0.2,0.1-0.4,0.1-0.7,0.2
							h-0.2c-0.3,0.1-0.6,0.2-0.8,0.2c-0.2,0.1-0.7,0.4-1,0.6c-0.3,0.2-0.8,0.6-1.2,0.8c-0.3,0.2-0.8,0.5-1.2,0.6c0,0,0,0.1-0.1,0.1
							c-0.1,0.1-0.2,0.4-0.5,0.5c-0.2,0.2-0.7,0.5-0.9,0.8c-0.3,0.3-0.8,0.6-1.1,0.9c-0.3,0.2-0.8,0.6-1.1,0.8c0,0-0.2,0.2-0.3,0.3
							c-0.2,0.3-0.4,0.6-0.7,0.7c0,0-0.2,0.3-0.6,0.7c-0.5,0.6-0.6,0.8-1,0.8h-0.4l-0.4-0.6l0.3-1.1c0.1-0.2,0.1-0.4,0.2-0.5
							c0.1-0.4,0.4-1,0.6-1.3c0-0.1,0.2-0.7,0.2-1c0.2-1,0.3-1.3,0.5-1.6s0.4-0.7,0.4-1c0.1-0.3,0.2-0.9,0.3-1.2
							c0.1-0.3,0.1-0.7,0.2-1c-0.3,0-0.8,0.1-1.1,0.2H368c-0.4,0.1-0.9,0.2-1.2,0.3c-0.2,0-0.4,0.1-0.7,0.2l-0.2,0.1h-0.1
							c-0.1,0.1-0.3,0.2-0.4,0.3c-0.1,0-0.2,0.1-0.3,0.2l0,0c-0.1,0.1-0.2,0.2-0.3,0.3l-0.1,0.1c-0.1,0.3-0.3,0.4-0.4,0.6
							c-0.1,0.1-0.1,0.1-0.2,0.1c-0.1,0.2-0.3,0.3-0.4,0.5c-0.1,0.1-0.2,0.2-0.2,0.2v0.1c-0.2,0.4-0.5,0.9-0.7,1.1l-0.2,0.2
							c-0.1,0.1-0.1,0.1-0.2,0.2l0,0l-0.2,0.3c0,0-0.5,0.5-0.8,0.8c-0.1,0.2-0.3,0.3-0.4,0.5l-0.3,0.4c-0.1,0.1-0.3,0.4-0.7,0.7
							l-0.1,0.1c-0.2,0.2-0.5,0.5-0.6,0.6c-0.2,0.3-0.7,0.7-1.4,1.2l-0.3,0.2c-0.1,0.1-0.2,0.1-0.3,0.2h-0.1c-0.2,0.3-0.5,0.4-1,0.7
							c-0.3,0.1-0.7,0.4-0.8,0.5c-0.5,0.2-0.9,0.4-1.2,0.5H354l0,0c-0.6,0-1.2-0.4-1.3-1.1c-0.1-0.4-0.2-1-0.2-1.4s0-1,0.1-1.3
							c0.1-0.4,0.2-1,0.4-1.4c0-0.1,0.1-0.4,0.3-1.2l0.1-0.4c0.1-0.4,0.2-0.9,0.4-1.3c0.1-0.3,0.2-0.8,0.3-1.1c0-0.3,0-0.8,0-1
							c0-0.1-0.1-0.2-0.1-0.2c-0.2-0.1-0.7-0.2-1-0.2s-0.7-0.1-1,0c-0.3,0-0.8,0.1-1,0.1c-0.3,0.1-0.8,0.2-1.1,0.3
							c-0.3,0.1-0.8,0.3-1,0.4c-0.3,0.1-0.7,0.3-1,0.5c-0.1,0-0.3,0.2-0.5,0.4l-0.1,0.1l-0.1,0.1c-0.2,0.2-0.5,0.5-1,0.8
							c-0.2,0.1-0.2,0.1-0.2,0.2c-0.1,0.1-0.2,0.2-0.3,0.3c-0.1,0.1-0.1,0.1-0.2,0.2c0,0-0.1,0.1-0.2,0.2c0,0-0.2,0.2-0.3,0.3
							l-0.2,0.2c0,0-0.1,0.1-0.3,0.2c-0.2,0.1-0.3,0.2-0.3,0.3s-0.1,0.2-0.2,0.3l-0.1,0.1c-0.1,0.2-0.3,0.5-0.4,0.6
							c-0.2,0.2-0.3,0.3-0.5,0.4c-0.2,0.1-0.3,0.2-0.5,0.3c-0.4,0.4-0.9,0.6-1.1,0.7c-0.4,0.3-0.6,0.5-0.7,0.6
							c-0.3,0.3-0.5,0.5-0.7,0.6c-0.1,0.1-0.2,0.1-0.3,0.2c-0.3,0.2-0.8,0.5-1.3,0.8h-0.1c-0.2,0.1-0.3,0.2-0.4,0.2
							c-0.1,0.1-0.3,0.2-0.5,0.3s-0.3,0.1-0.5,0.3c-0.4,0.5-0.8,0.6-1,0.6l0,0c-0.1,0.1-0.4,0.3-0.6,0.4c-0.2,0.1-0.5,0.2-0.7,0.4
							c-0.5,0.4-1.1,0.6-1.4,0.7l-0.1,0.1c-0.2,0.2-1.1,0.5-1.6,0.5l-0.8,0.2l-0.2-0.1c0,0-0.2-0.1-0.3-0.2
							c-0.3-0.3-0.7-0.9-0.8-1.4c-0.1-0.4-0.1-1-0.1-1.4s0-1,0.1-1.3c0-0.4,0.1-1,0.2-1.4l0.3-1.3c0.1-0.4,0.3-1,0.5-1.4
							c0.2-0.3,0.5-0.8,0.7-1.2c0.2-0.3,0.5-0.8,0.7-1.1s0.5-0.8,0.6-1.1c0.2-0.4,0.5-0.9,0.7-1.2s0.6-0.8,0.9-1.1
							c0.2-0.2,0.6-0.6,0.8-0.9c0.2-0.3,0.5-0.7,0.7-1l0.7-1.1c0.2-0.3,1-1.5,1.3-1.9c0.2-0.2,0.5-0.6,0.6-0.9
							c0.1-0.3,0.4-0.8,0.5-1.2c0.1-0.3,0.3-0.8,0.4-1.1s0.2-0.8,0.3-1.1c-0.3-0.1-0.8-0.1-1.1-0.2c-0.3,0-0.8,0-1.2,0h-0.1
							c-0.4,0-0.9,0-1.3,0c-0.3,0-0.8,0.1-1,0.2c-0.3,0.1-0.7,0.4-1,0.5c-0.2,0.1-0.5,0.5-0.5,0.6c-0.1,0.2-0.2,0.6-0.3,0.9
							c0.4,0,1,0.1,1.4,0.2c0.5,0.1,0.8,0.4,1,0.7c0.1,0.4,0.1,0.8-0.2,1.1l-0.2,0.2c-0.2,0.3-0.4,0.5-0.6,0.7
							c-0.1,0.1-0.2,0.3-0.4,0.6c-0.3,0.5-0.7,1-0.8,1.2c-0.2,0.3-0.5,0.6-0.7,0.9c-0.2,0.3-0.5,0.8-0.7,1c-0.2,0.4-0.6,0.9-0.8,1.2
							c-0.2,0.2-0.5,0.6-0.6,0.9c-0.2,0.3-0.5,0.8-0.7,1.1s-0.5,0.8-0.6,1.1c-0.2,0.3-0.4,0.8-0.5,1.1s-0.3,0.8-0.4,1.1
							c-0.1,0.4-0.2,0.9-0.4,1.3c-0.1,0.3-0.3,0.8-0.3,1.2c-0.1,0.3-0.1,0.8-0.1,1.1C326.8,234.3,326.7,234.9,326.7,235.3
							 M344,235.2c0-0.5,0.1-1.1,0.3-1.6c0.2-0.3,0.5-0.8,0.7-1.1s0.6-0.8,0.9-1.1c0.3-0.2,0.6-0.6,0.9-0.9c0.1-0.1,0.1-0.2,0.2-0.3
							c0.4-0.6,0.6-0.9,0.9-1.1c0.3-0.2,0.8-0.5,1.1-0.6c0.3-0.2,0.8-0.4,1.2-0.6c0.6-0.3,1.1-0.1,1.3,0.3c0.2,0.3,0.1,0.7-0.1,1.1
							c-0.2,0.3-0.6,0.9-0.8,1.2c-0.1,0.1-0.2,0.3-0.3,0.5l-0.1,0.2c-0.2,0.3-0.3,0.7-0.5,0.9c-0.3,0.3-0.7,0.7-0.9,1
							c-0.2,0.3-0.7,0.7-1,1c-0.2,0.2-0.6,0.5-0.8,0.8l-0.1,0.1c-0.3,0.2-0.7,0.6-1,0.9c-0.3,0.2-0.5,0.4-0.8,0.4
							C344.5,236.1,344,235.8,344,235.2"/>
					</g>
				</g>
			</g>
		</g>
	</g>
</g>
</svg>
