<svg viewBox="0 0 1120.89 1119.79" xmlns="http://www.w3.org/2000/svg"><path d="m36.35 363.28 42.65-89.84 13.69 6.56-17.79 37.44 94 44.6-7.34 15.47-94-44.6-17.5 36.88z"/><path d="m198.32 132.88 12.25-11.88 82.79 85.54-12.25 11.85-36-37.23-48.11 46.55 36 37.23-12.2 11.85-82.8-85.53 12.25-11.86 35.79 37 48.07-46.52z"/><path d="m303.13 62.21 61.47-27.87 6.26 13.81-45.94 20.85 15 33.06 44.38-20.14 6.3 13.89-44.39 20.12 15.27 33.69 47.42-21.51 6.26 13.82-62.93 28.54z"/><path d="m603 70.67-12.31-8.87q-11.57-8.38-16.13-16a27.74 27.74 0 0 1 -3.83-16.93q1.11-14 11.53-22t26-6.74a47.87 47.87 0 0 1 26.6 10.5l-1.56 19.37q-11.85-13.4-26.63-14.57-8.32-.66-14 2.76t-6.13 9.43a15.25 15.25 0 0 0 3.15 10.3q3.57 5 11.9 10.78l12.41 8.71q20.68 14.69 19.09 34.73-1.12 14.28-11.39 22.44t-25.56 6.94a52.27 52.27 0 0 1 -31.14-13.35l1.71-21.57q12.38 18.53 30.47 20a20.07 20.07 0 0 0 13.64-3.39 14 14 0 0 0 6.18-10.75q.83-10.83-14-21.79z"/><path d="m727.43 22.49 91.94 37.9-5.78 14-38.37-15.8-39.65 96.2-15.83-6.53 39.64-96.19-37.73-15.55z"/><path d="m916.1 126.41 9.15 7.72-36.45 125.87-13.33-11.25 10.64-37.19-38.81-32.72-34.12 17.36-13.38-11.3zm-25.56 69.08 13.14-45.33-41.43 21.45z"/><path d="m1001.37 326 19.46 34.91-44.07 24.56q-19-14.57-29.57-33.47-14.4-25.81-7.93-49.67t28.57-36.16q23.29-13 47.7-5.61t37.84 31.49a81.41 81.41 0 0 1 7.39 17.73 155.27 155.27 0 0 1 4.16 23.83l-15.18 8.46q.42-24.63-9.78-42.93-9.51-17.06-27.63-22.26t-35 4.2q-17.73 9.92-22.46 27.84t5.52 36.33q5 8.94 16 19.09l1.23 1.16 21.66-12.07-11.15-20z"/><path d="m0 528.41 119-2.35.59 29.82q.35 18.06-8.38 28.84t-24 11.09a29.79 29.79 0 0 1 -29.7-19.53 53 53 0 0 1 -10 11.36q-6.37 5.58-22.28 15.78-10 6.42-15 10.27l-8.4 6.47-.4-20.27 7.74-5.35a16.81 16.81 0 0 0 1.43-1l4.62-3.41 8.59-5.44 9.19-5.94a92.34 92.34 0 0 0 11.48-9.9 36.59 36.59 0 0 0 6.09-8.05q1.85-3.59 1.68-11.94l-.09-4.43-51.79 1zm105 20.09-.1-5.11-37.57.74.13 6.47q.25 12.95 2.56 17.72a16.58 16.58 0 0 0 6.84 7.36 19.37 19.37 0 0 0 10.23 2.49 18.3 18.3 0 0 0 10.09-3.17 16 16 0 0 0 6.27-8.52q1.77-5.48 1.55-17.98z"/><path d="m145.45 703.59 4.15 11.23-93.79 91.58-6-16.36 27.58-27.12-17.6-47.63-38.29-1.72-6.07-16.43zm-56.3 47.5 33.78-33-46.62-1.75z"/><path d="m186.7 939.94-14.38 12q-19.86-7.82-35.61-26.64-12.8-15.29-15.56-31.09a58.9 58.9 0 0 1 2.82-31 60 60 0 0 1 18.14-25.72q19.94-16.68 45.42-13.83t42.93 23.69q12 14.39 19.22 38.25l-14.05 11.75q-4.26-23.65-17-39-13.12-15.69-31.69-17.76t-33.51 10.41q-15 12.57-16.18 30.86t12.14 34.17q13.89 16.61 37.31 23.91z"/><path d="m361.25 951.28 18.44 10.64-73 23.12 24.45 86.32-20.14-11.63-23.3-81.33-29.39 50.92-14.76-8.52 59.51-103.1 14.76 8.52-27.22 47.16z"/><path d="m440.81 982.92 66.06 13.81-3.1 14.84-49.38-10.31-7.39 35.53 47.71 10-3.12 14.93-47.71-10-7.57 36.2 51 10.65-3.1 14.84-67.65-14.13z"/><path d="m658.41 989.44 16.05-2.12 15.61 118-14.53 1.92-90.92-80.45 12 90.89-15.88 2.1-15.61-118 13.69-1.81 91.7 81.13z"/><path d="m734.29 964.2 56.8-28.35 6.77 13.57-41.55 20.74 14.84 29.73 41.55-20.74 6.78 13.57-41.55 20.74 24.77 49.63-15.25 7.62z"/><path d="m877.93 862.36q19.11-19.89 44.42-21t44.3 17.11q19 18.24 18.6 43.55t-19.92 45.64q-18.64 19.34-43.5 20.34t-43.61-17q-19.22-18.5-19.32-43.62t19.03-45.02zm12.14 10.73q-14.14 14.73-14.07 33.07t14.42 32.1q13.89 13.34 32.25 12.68t32.1-15q13.8-14.37 13.63-33t-14.18-32.1q-13.63-13.11-32.18-12.44t-31.97 14.69z"/><path d="m1061.94 812.49-109.48-46.74 11.71-27.43q7.1-16.61 19.49-22.86t26.42-.25a29.76 29.76 0 0 1 19.06 30 52.71 52.71 0 0 1 13.79-6.26q8.1-2.46 26.79-5.24 11.77-1.72 17.94-3.17l10.31-2.46-8 18.65-9.25 1.7c-.33 0-.91.17-1.73.37l-5.62 1.21-10.07 1.44-10.78 1.59a92.5 92.5 0 0 0 -14.53 4.31 36.72 36.72 0 0 0 -8.87 4.84q-3.15 2.5-6.43 10.2l-1.74 4.08 47.64 20.34zm-87.46-61.43-2 4.71 34.52 14.75 2.54-6q5.08-11.91 4.94-17.2a16.68 16.68 0 0 0 -3.21-9.53 19.41 19.41 0 0 0 -8.31-6.46 18.11 18.11 0 0 0 -10.54-1.26 16 16 0 0 0 -9.21 5.19q-3.8 4.29-8.73 15.8z"/><path d="m1118.54 637.59-118.72-6 2-40.09q1.21-24.25 9.21-38a54.84 54.84 0 0 1 22.53-21.39 59.56 59.56 0 0 1 31.23-6.79 58.72 58.72 0 0 1 52.9 40.62 60.63 60.63 0 0 1 2.91 12.52q.62 5.67-.19 21.49zm-101.64-43.51-1.07 21.28 88.42 4.45 1.09-21.79q.65-12.76-.74-19.92a46.89 46.89 0 0 0 -3.83-12 40.88 40.88 0 0 0 -6.16-9q-12.13-13.23-31.62-14.21-19.15-1-31.89 11.36a41.5 41.5 0 0 0 -7.95 10.56 45.79 45.79 0 0 0 -4.42 11.51q-1.22 5.51-1.83 17.76z"/><path d="m751.54 701.74c-1.34-2.22-1.64-4.31-8.56-4.42-1 0-15-.07-15.8-1-1.19-1.38.57-4.05.85-6.06.45-3.24-1.4-5.17-2-6.75-.55-1.33.08-1.56-4.65-9.66s-8.36-22.17-12.4-28.28c-3-4.59-7.17-15.87-9-21.22a4.4 4.4 0 0 0 -3.95-2.94c-5.8-.29-18.69-2-24.73-11.6-7.93-12.55 2.66-26 7.84-40.72.58-1.63.72-1.93 1.24-3.47.77-2.29 1.84 3.06 3.19.07 4.83-10.75 3.26-22.84-9.83-24.81-15.71-2.35-29.78-9.83-44.31-12.38s-38.81-3.25-63.41-6.21-45.37-21.46-59.16-23.85-18.81-10.36-16.86-22.93 2-21.93 1-24.77-8.5-11.68-.47-11.4 10.63-1.16 22.89-8.09 3.66-8.49-3.43-9.19-24 .74-25.33-2.07 7.54-2.73 21.74-6.87 6.43-8.34 24.76-13.19 15.3-10.1 35.3-13 24.52-7.71 24.84-10.6-14.62 2.47-23.06 4.41-6.18-1.06-2.11-3.24 10.66-6.61 1.48-5-5.55-2.1-4.89-7.82 7.28-13.09 4.28-12.04-7.76 7.08-10 14.9-2.39 10.64-12.52 11.73c-7.36.79-6.65-4-7.16-9.64s7.8-15.14 4.54-14.48c-3.62.72-4.83 1.93-6.57 5.51s-4 16.2-7.35 13.57 3.33-13.52 5.35-22-1.27-4-4.49 0-5.84 18.28-6.44 27.28-7.75 10.54-18.65 10-7.34-19.24-5.6-25.17 9.25-13.81 0-7.15-7.51 25.68-5.54 32-.57 5.81-4.86 11.81-17.27 5.4-15.37-2.6c3.15-13.22 15.27-15.2 14.47-18s-11.07 1.72-14.47 5.41c-2.56 2.77-5.93 9.21-7.45 12.26a2 2 0 0 1 -2.55 1c-12.87-5.47-6.16-17.54-3.48-22.08 2.8-4.74 7.43-7.39 4-6.44s-14.39 5.2-14.78 16.3c-.26 7.06 4.42 13.28 7.86 16.87 2 2.12 2.49 6.38 1.15 9l-.09.28a9.1 9.1 0 0 1 -6.66 4.84l-39.89 4.42a5.83 5.83 0 0 0 -4.92 7.5l1.13 3.66a7.78 7.78 0 0 0 4.43 4.88l.52.14a38.78 38.78 0 0 1 18.69 11.16l7.35 7.94a5.73 5.73 0 0 1 -.73 8.45 17.62 17.62 0 0 0 -6.92 13.01l-1.75 32.9a41.42 41.42 0 0 0 9.22 28.31l4.78 5.87a12.59 12.59 0 0 1 2.74 6.64s3.29 8.08 1.67 16.34-17.66 9.82-26.66 10.54-20.48 8.48-19.6 17.56-6.53 24.84-8.53 30.58 1.34 9.25 4.14 15.74 9.58 9.33 16.58 12.44 3.63-12-2.09-16-3.73-5.11-5.27-10.81 3.4-18.38 8-27.67 12.5-5.21 29.34-3.2 21.17 2.74 26.86.68 16.67-3.4 24.06 3.57-.33 19.84 1.24 36.34c1.48 15.48.72 18.67.45 25.25-.29 6.88-6.54 8.26-8.37 12.48s-3.57 8.9-9.1 10.4c-3.67 1-7.64 1.81-11.74 2.5-6.77 1.15-16.57 3.78-23.39 4.52-8.81 1-33.29 0-39.5 1.25-6.63 1.35-10.07 2.75-11.29 5.62a5.49 5.49 0 0 0 -.54 2.71c.26 1.85 1.08 1.85 4.11 1.85h356.19c2.45.04.62-2.81-.01-3.67zm-163.83-23a11.56 11.56 0 0 0 -5.51 4.41 5.46 5.46 0 0 1 -4.7 2.47s-25.93-1.65-37.14 1-40.22-1-40.22-1a1.36 1.36 0 0 1 -1.35-1.6c1.2-7.1 7.88-30.91 9.16-36.41 1.4-6 4.69-19.8 4.83-22.2s2.3-18.48 4.5-21.17 32.09 12.55 50.55 12.55 27.69-7.44 33.68-4.7 16.65 19.68 18.36 27.35-7.47 16-12.93 21.31-13.18 15.47-19.23 18.04zm125.76 17.43c-1.92-.14-14.5-1.7-29.07-3.35-9.38-1.07-16.21-.15-24.92-.94-5.39-.48-14.66-2.94-20.49-3.37-18.28-1.33-35.91-2.48-35.11-4.21 6.37-13.85 31.79-37 38.2-42.09 2.75-2.19 3.91-4 4.34-5.47a2.12 2.12 0 0 1 2.81-1.29c9.8 4 30.93 2.55 44 12.49 14.67 11.12 18.91 34.68 20 37.41s3.4 11.09.24 10.87z"/></svg>